<svg xmlns="http://www.w3.org/2000/svg" xmlns:xlink="http://www.w3.org/1999/xlink" width="500" zoomAndPan="magnify" viewBox="0 0 375 374.999991" height="500" preserveAspectRatio="xMidYMid meet" version="1.0"><defs><g/><clipPath id="e5c82053dc"><path d="M 116.863281 82.59375 L 257.863281 82.59375 L 257.863281 224 L 116.863281 224 Z M 116.863281 82.59375 " clip-rule="nonzero"/></clipPath><clipPath id="ac4d3cd2cf"><path d="M 143 127 L 225 127 L 225 232.59375 L 143 232.59375 Z M 143 127 " clip-rule="nonzero"/></clipPath><clipPath id="74012c4419"><path d="M 143 151 L 208 151 L 208 232.59375 L 143 232.59375 Z M 143 151 " clip-rule="nonzero"/></clipPath><clipPath id="4f3e9cf3d5"><path d="M 143 170 L 174 170 L 174 232.59375 L 143 232.59375 Z M 143 170 " clip-rule="nonzero"/></clipPath></defs><g clip-path="url(#e5c82053dc)"><path fill="#563d37" d="M 257.863281 153.226562 C 257.863281 154.382812 257.832031 155.539062 257.777344 156.691406 C 257.71875 157.847656 257.636719 159 257.523438 160.148438 C 257.410156 161.300781 257.269531 162.445312 257.097656 163.589844 C 256.929688 164.734375 256.734375 165.871094 256.507812 167.007812 C 256.28125 168.140625 256.03125 169.265625 255.75 170.390625 C 255.46875 171.511719 255.160156 172.625 254.828125 173.730469 C 254.492188 174.835938 254.128906 175.933594 253.742188 177.023438 C 253.351562 178.109375 252.9375 179.1875 252.496094 180.257812 C 252.054688 181.324219 251.585938 182.378906 251.09375 183.425781 C 250.601562 184.472656 250.082031 185.503906 249.539062 186.523438 C 248.992188 187.542969 248.425781 188.546875 247.832031 189.539062 C 247.238281 190.53125 246.621094 191.507812 245.980469 192.46875 C 245.339844 193.429688 244.675781 194.375 243.988281 195.300781 C 243.300781 196.230469 242.589844 197.140625 241.859375 198.035156 C 241.128906 198.929688 240.375 199.804688 239.597656 200.660156 C 238.824219 201.515625 238.03125 202.355469 237.214844 203.171875 C 236.398438 203.988281 235.5625 204.785156 234.707031 205.5625 C 233.851562 206.339844 232.980469 207.09375 232.085938 207.828125 C 231.195312 208.558594 230.285156 209.269531 229.359375 209.960938 C 228.433594 210.648438 227.488281 211.3125 226.53125 211.957031 C 225.570312 212.597656 224.597656 213.214844 223.605469 213.808594 C 222.617188 214.40625 221.613281 214.972656 220.597656 215.519531 C 219.578125 216.0625 218.546875 216.582031 217.503906 217.078125 C 216.460938 217.570312 215.40625 218.039062 214.34375 218.484375 C 213.277344 218.925781 212.199219 219.339844 211.113281 219.730469 C 210.027344 220.121094 208.933594 220.484375 207.828125 220.816406 C 206.722656 221.152344 205.613281 221.460938 204.492188 221.742188 C 203.375 222.023438 202.25 222.277344 201.117188 222.503906 C 199.984375 222.726562 198.847656 222.925781 197.707031 223.09375 C 196.566406 223.265625 195.421875 223.40625 194.273438 223.519531 C 193.125 223.632812 191.976562 223.71875 190.824219 223.773438 C 189.671875 223.832031 188.515625 223.859375 187.363281 223.859375 C 186.210938 223.859375 185.058594 223.832031 183.90625 223.773438 C 182.753906 223.71875 181.601562 223.632812 180.453125 223.519531 C 179.304688 223.40625 178.160156 223.265625 177.019531 223.09375 C 175.878906 222.925781 174.742188 222.726562 173.609375 222.503906 C 172.476562 222.277344 171.351562 222.023438 170.234375 221.742188 C 169.113281 221.460938 168.003906 221.152344 166.898438 220.816406 C 165.796875 220.484375 164.699219 220.121094 163.613281 219.730469 C 162.527344 219.339844 161.449219 218.925781 160.386719 218.484375 C 159.320312 218.039062 158.265625 217.570312 157.222656 217.078125 C 156.179688 216.582031 155.148438 216.0625 154.132812 215.519531 C 153.113281 214.972656 152.109375 214.40625 151.121094 213.808594 C 150.128906 213.214844 149.15625 212.597656 148.195312 211.957031 C 147.238281 211.3125 146.292969 210.648438 145.367188 209.960938 C 144.441406 209.269531 143.53125 208.558594 142.640625 207.828125 C 141.746094 207.09375 140.875 206.339844 140.019531 205.5625 C 139.164062 204.785156 138.328125 203.988281 137.515625 203.171875 C 136.699219 202.355469 135.902344 201.515625 135.128906 200.660156 C 134.351562 199.804688 133.597656 198.929688 132.867188 198.035156 C 132.136719 197.140625 131.425781 196.230469 130.738281 195.300781 C 130.050781 194.375 129.386719 193.429688 128.746094 192.46875 C 128.105469 191.507812 127.488281 190.53125 126.894531 189.539062 C 126.300781 188.546875 125.734375 187.542969 125.191406 186.523438 C 124.644531 185.503906 124.128906 184.472656 123.632812 183.425781 C 123.140625 182.378906 122.671875 181.324219 122.230469 180.257812 C 121.789062 179.1875 121.375 178.109375 120.984375 177.023438 C 120.597656 175.933594 120.234375 174.835938 119.902344 173.730469 C 119.566406 172.625 119.257812 171.511719 118.976562 170.390625 C 118.699219 169.265625 118.445312 168.140625 118.21875 167.007812 C 117.996094 165.871094 117.796875 164.734375 117.628906 163.589844 C 117.457031 162.445312 117.316406 161.300781 117.203125 160.148438 C 117.089844 159 117.007812 157.847656 116.949219 156.691406 C 116.894531 155.539062 116.863281 154.382812 116.863281 153.226562 C 116.863281 152.070312 116.894531 150.914062 116.949219 149.761719 C 117.007812 148.605469 117.089844 147.453125 117.203125 146.304688 C 117.316406 145.152344 117.457031 144.003906 117.628906 142.863281 C 117.796875 141.71875 117.996094 140.582031 118.21875 139.445312 C 118.445312 138.3125 118.699219 137.183594 118.976562 136.0625 C 119.257812 134.941406 119.566406 133.828125 119.902344 132.722656 C 120.234375 131.617188 120.597656 130.519531 120.984375 129.429688 C 121.375 128.34375 121.789062 127.265625 122.230469 126.195312 C 122.671875 125.128906 123.140625 124.070312 123.632812 123.027344 C 124.128906 121.980469 124.644531 120.949219 125.191406 119.929688 C 125.734375 118.910156 126.300781 117.90625 126.894531 116.914062 C 127.488281 115.921875 128.105469 114.945312 128.746094 113.984375 C 129.386719 113.023438 130.050781 112.078125 130.738281 111.148438 C 131.425781 110.222656 132.136719 109.3125 132.867188 108.417969 C 133.597656 107.523438 134.351562 106.648438 135.128906 105.792969 C 135.902344 104.933594 136.699219 104.097656 137.515625 103.28125 C 138.328125 102.464844 139.164062 101.667969 140.019531 100.890625 C 140.875 100.113281 141.746094 99.359375 142.640625 98.625 C 143.53125 97.894531 144.441406 97.183594 145.367188 96.492188 C 146.292969 95.804688 147.238281 95.140625 148.195312 94.496094 C 149.15625 93.855469 150.128906 93.238281 151.121094 92.640625 C 152.109375 92.046875 153.113281 91.476562 154.132812 90.933594 C 155.148438 90.386719 156.179688 89.867188 157.222656 89.375 C 158.265625 88.878906 159.320312 88.410156 160.386719 87.96875 C 161.449219 87.527344 162.527344 87.113281 163.613281 86.722656 C 164.699219 86.332031 165.796875 85.96875 166.898438 85.632812 C 168.003906 85.300781 169.113281 84.992188 170.234375 84.710938 C 171.351562 84.429688 172.476562 84.175781 173.609375 83.949219 C 174.742188 83.726562 175.878906 83.527344 177.019531 83.359375 C 178.160156 83.1875 179.304688 83.046875 180.453125 82.933594 C 181.601562 82.820312 182.753906 82.734375 183.90625 82.679688 C 185.058594 82.621094 186.210938 82.59375 187.363281 82.59375 C 188.515625 82.59375 189.671875 82.621094 190.824219 82.679688 C 191.976562 82.734375 193.125 82.820312 194.273438 82.933594 C 195.421875 83.046875 196.566406 83.1875 197.707031 83.359375 C 198.847656 83.527344 199.984375 83.726562 201.117188 83.949219 C 202.25 84.175781 203.375 84.429688 204.492188 84.710938 C 205.613281 84.992188 206.722656 85.300781 207.828125 85.632812 C 208.933594 85.96875 210.027344 86.332031 211.113281 86.722656 C 212.199219 87.113281 213.277344 87.527344 214.34375 87.96875 C 215.40625 88.410156 216.460938 88.878906 217.503906 89.375 C 218.546875 89.867188 219.578125 90.386719 220.597656 90.933594 C 221.613281 91.476562 222.617188 92.046875 223.605469 92.640625 C 224.597656 93.238281 225.570312 93.855469 226.53125 94.496094 C 227.488281 95.140625 228.433594 95.804688 229.359375 96.492188 C 230.285156 97.183594 231.195312 97.894531 232.085938 98.625 C 232.980469 99.359375 233.851562 100.113281 234.707031 100.890625 C 235.5625 101.667969 236.398438 102.464844 237.214844 103.28125 C 238.03125 104.097656 238.824219 104.933594 239.597656 105.792969 C 240.375 106.648438 241.128906 107.523438 241.859375 108.417969 C 242.589844 109.3125 243.300781 110.222656 243.988281 111.148438 C 244.675781 112.078125 245.339844 113.023438 245.980469 113.984375 C 246.621094 114.945312 247.238281 115.921875 247.832031 116.914062 C 248.425781 117.90625 248.992188 118.910156 249.539062 119.929688 C 250.082031 120.949219 250.601562 121.980469 251.09375 123.027344 C 251.585938 124.070312 252.054688 125.128906 252.496094 126.195312 C 252.9375 127.265625 253.351562 128.34375 253.742188 129.429688 C 254.128906 130.519531 254.492188 131.617188 254.828125 132.722656 C 255.160156 133.828125 255.46875 134.941406 255.75 136.0625 C 256.03125 137.183594 256.28125 138.3125 256.507812 139.445312 C 256.734375 140.582031 256.929688 141.71875 257.097656 142.863281 C 257.269531 144.003906 257.410156 145.152344 257.523438 146.304688 C 257.636719 147.453125 257.71875 148.605469 257.777344 149.761719 C 257.832031 150.914062 257.863281 152.070312 257.863281 153.226562 Z M 257.863281 153.226562 " fill-opacity="1" fill-rule="nonzero"/></g><path fill="#fef9ec" d="M 256.152344 153.226562 C 256.152344 154.355469 256.125 155.480469 256.070312 156.609375 C 256.015625 157.734375 255.929688 158.859375 255.820312 159.980469 C 255.710938 161.105469 255.574219 162.222656 255.40625 163.339844 C 255.242188 164.453125 255.050781 165.566406 254.832031 166.671875 C 254.609375 167.777344 254.363281 168.878906 254.089844 169.972656 C 253.816406 171.066406 253.515625 172.152344 253.191406 173.234375 C 252.863281 174.3125 252.511719 175.382812 252.132812 176.445312 C 251.75 177.507812 251.347656 178.558594 250.917969 179.601562 C 250.484375 180.644531 250.027344 181.671875 249.546875 182.695312 C 249.066406 183.714844 248.558594 184.71875 248.03125 185.714844 C 247.5 186.710938 246.945312 187.691406 246.367188 188.660156 C 245.785156 189.625 245.183594 190.578125 244.558594 191.515625 C 243.933594 192.453125 243.285156 193.375 242.613281 194.28125 C 241.945312 195.1875 241.253906 196.078125 240.539062 196.949219 C 239.824219 197.820312 239.089844 198.675781 238.332031 199.511719 C 237.578125 200.347656 236.800781 201.164062 236.003906 201.960938 C 235.207031 202.757812 234.394531 203.535156 233.558594 204.292969 C 232.726562 205.050781 231.871094 205.785156 231.003906 206.503906 C 230.132812 207.21875 229.246094 207.910156 228.339844 208.582031 C 227.4375 209.253906 226.515625 209.90625 225.582031 210.53125 C 224.644531 211.15625 223.695312 211.761719 222.726562 212.339844 C 221.761719 212.921875 220.785156 213.476562 219.789062 214.007812 C 218.796875 214.539062 217.792969 215.046875 216.773438 215.53125 C 215.757812 216.011719 214.726562 216.46875 213.6875 216.898438 C 212.648438 217.332031 211.597656 217.738281 210.539062 218.117188 C 209.476562 218.496094 208.410156 218.851562 207.332031 219.179688 C 206.253906 219.507812 205.171875 219.808594 204.078125 220.082031 C 202.984375 220.355469 201.886719 220.601562 200.785156 220.820312 C 199.679688 221.042969 198.570312 221.234375 197.457031 221.402344 C 196.34375 221.566406 195.226562 221.703125 194.105469 221.816406 C 192.984375 221.925781 191.863281 222.007812 190.738281 222.0625 C 189.613281 222.117188 188.488281 222.144531 187.363281 222.144531 C 186.238281 222.144531 185.113281 222.117188 183.988281 222.0625 C 182.863281 222.007812 181.742188 221.925781 180.621094 221.816406 C 179.5 221.703125 178.382812 221.566406 177.269531 221.402344 C 176.15625 221.234375 175.046875 221.042969 173.945312 220.820312 C 172.839844 220.601562 171.742188 220.355469 170.648438 220.082031 C 169.558594 219.808594 168.472656 219.507812 167.394531 219.179688 C 166.316406 218.851562 165.25 218.496094 164.1875 218.117188 C 163.128906 217.738281 162.078125 217.332031 161.039062 216.898438 C 160 216.46875 158.96875 216.011719 157.953125 215.53125 C 156.933594 215.046875 155.929688 214.539062 154.9375 214.007812 C 153.945312 213.476562 152.964844 212.921875 152 212.339844 C 151.035156 211.761719 150.082031 211.15625 149.148438 210.53125 C 148.210938 209.90625 147.289062 209.253906 146.386719 208.582031 C 145.480469 207.910156 144.59375 207.21875 143.722656 206.503906 C 142.855469 205.785156 142.003906 205.050781 141.167969 204.292969 C 140.332031 203.535156 139.519531 202.757812 138.722656 201.960938 C 137.925781 201.164062 137.152344 200.347656 136.394531 199.511719 C 135.636719 198.675781 134.902344 197.820312 134.1875 196.949219 C 133.476562 196.078125 132.78125 195.1875 132.113281 194.28125 C 131.441406 193.375 130.792969 192.453125 130.167969 191.515625 C 129.542969 190.578125 128.941406 189.625 128.363281 188.660156 C 127.78125 187.691406 127.226562 186.710938 126.699219 185.714844 C 126.167969 184.71875 125.660156 183.714844 125.179688 182.695312 C 124.699219 181.671875 124.242188 180.644531 123.8125 179.601562 C 123.378906 178.558594 122.976562 177.507812 122.597656 176.445312 C 122.214844 175.382812 121.863281 174.3125 121.535156 173.234375 C 121.210938 172.152344 120.910156 171.066406 120.636719 169.972656 C 120.363281 168.878906 120.117188 167.777344 119.898438 166.671875 C 119.675781 165.566406 119.484375 164.453125 119.320312 163.339844 C 119.152344 162.222656 119.015625 161.105469 118.90625 159.980469 C 118.796875 158.859375 118.714844 157.734375 118.65625 156.609375 C 118.601562 155.480469 118.574219 154.355469 118.574219 153.226562 C 118.574219 152.097656 118.601562 150.972656 118.65625 149.84375 C 118.714844 148.71875 118.796875 147.59375 118.90625 146.472656 C 119.015625 145.347656 119.152344 144.230469 119.320312 143.113281 C 119.484375 141.996094 119.675781 140.886719 119.898438 139.78125 C 120.117188 138.675781 120.363281 137.574219 120.636719 136.480469 C 120.910156 135.386719 121.210938 134.300781 121.535156 133.21875 C 121.863281 132.140625 122.214844 131.070312 122.597656 130.007812 C 122.976562 128.945312 123.378906 127.894531 123.8125 126.851562 C 124.242188 125.808594 124.699219 124.777344 125.179688 123.757812 C 125.660156 122.738281 126.167969 121.730469 126.699219 120.738281 C 127.226562 119.742188 127.78125 118.761719 128.363281 117.792969 C 128.941406 116.828125 129.542969 115.875 130.167969 114.9375 C 130.792969 114 131.441406 113.078125 132.113281 112.171875 C 132.78125 111.265625 133.476562 110.375 134.1875 109.503906 C 134.902344 108.632812 135.636719 107.777344 136.394531 106.941406 C 137.152344 106.105469 137.925781 105.289062 138.722656 104.492188 C 139.519531 103.695312 140.332031 102.917969 141.167969 102.160156 C 142.003906 101.402344 142.855469 100.664062 143.722656 99.949219 C 144.59375 99.234375 145.480469 98.539062 146.386719 97.867188 C 147.289062 97.195312 148.210938 96.546875 149.148438 95.921875 C 150.082031 95.292969 151.035156 94.691406 152 94.113281 C 152.964844 93.53125 153.945312 92.976562 154.9375 92.445312 C 155.929688 91.914062 156.933594 91.40625 157.953125 90.921875 C 158.96875 90.441406 160 89.984375 161.039062 89.550781 C 162.078125 89.121094 163.128906 88.714844 164.1875 88.335938 C 165.25 87.953125 166.316406 87.601562 167.394531 87.273438 C 168.472656 86.945312 169.558594 86.644531 170.648438 86.371094 C 171.742188 86.097656 172.839844 85.851562 173.945312 85.628906 C 175.046875 85.410156 176.15625 85.21875 177.269531 85.050781 C 178.382812 84.886719 179.5 84.75 180.621094 84.636719 C 181.742188 84.527344 182.863281 84.445312 183.988281 84.390625 C 185.113281 84.332031 186.238281 84.304688 187.363281 84.304688 C 188.488281 84.304688 189.613281 84.332031 190.738281 84.390625 C 191.863281 84.445312 192.984375 84.527344 194.105469 84.636719 C 195.226562 84.75 196.34375 84.886719 197.457031 85.050781 C 198.570312 85.21875 199.679688 85.410156 200.785156 85.628906 C 201.886719 85.851562 202.984375 86.097656 204.078125 86.371094 C 205.171875 86.644531 206.253906 86.945312 207.332031 87.273438 C 208.410156 87.601562 209.476562 87.953125 210.539062 88.335938 C 211.597656 88.714844 212.648438 89.121094 213.6875 89.550781 C 214.726562 89.984375 215.757812 90.441406 216.773438 90.921875 C 217.792969 91.40625 218.796875 91.914062 219.789062 92.445312 C 220.785156 92.976562 221.761719 93.53125 222.726562 94.113281 C 223.695312 94.691406 224.644531 95.292969 225.582031 95.921875 C 226.515625 96.546875 227.4375 97.195312 228.339844 97.867188 C 229.246094 98.539062 230.132812 99.234375 231.003906 99.949219 C 231.871094 100.664062 232.726562 101.402344 233.558594 102.160156 C 234.394531 102.917969 235.207031 103.695312 236.003906 104.492188 C 236.800781 105.289062 237.578125 106.105469 238.332031 106.941406 C 239.089844 107.777344 239.824219 108.632812 240.539062 109.503906 C 241.253906 110.375 241.945312 111.265625 242.613281 112.171875 C 243.285156 113.078125 243.933594 114 244.558594 114.9375 C 245.183594 115.875 245.785156 116.828125 246.367188 117.792969 C 246.945312 118.761719 247.5 119.742188 248.03125 120.738281 C 248.558594 121.730469 249.066406 122.738281 249.546875 123.757812 C 250.027344 124.777344 250.484375 125.808594 250.917969 126.851562 C 251.347656 127.894531 251.75 128.945312 252.132812 130.007812 C 252.511719 131.070312 252.863281 132.140625 253.191406 133.21875 C 253.515625 134.300781 253.816406 135.386719 254.089844 136.480469 C 254.363281 137.574219 254.609375 138.675781 254.832031 139.78125 C 255.050781 140.886719 255.242188 141.996094 255.40625 143.113281 C 255.574219 144.230469 255.710938 145.347656 255.820312 146.472656 C 255.929688 147.59375 256.015625 148.71875 256.070312 149.84375 C 256.125 150.972656 256.152344 152.097656 256.152344 153.226562 Z M 256.152344 153.226562 " fill-opacity="1" fill-rule="nonzero"/><path fill="#fbc4a4" d="M 252.734375 153.226562 C 252.734375 154.296875 252.707031 155.371094 252.65625 156.441406 C 252.601562 157.511719 252.523438 158.578125 252.417969 159.644531 C 252.3125 160.710938 252.183594 161.777344 252.027344 162.835938 C 251.867188 163.898438 251.6875 164.953125 251.476562 166.003906 C 251.269531 167.054688 251.035156 168.101562 250.773438 169.140625 C 250.515625 170.179688 250.230469 171.210938 249.917969 172.238281 C 249.609375 173.265625 249.273438 174.28125 248.910156 175.289062 C 248.550781 176.300781 248.167969 177.300781 247.757812 178.289062 C 247.347656 179.28125 246.914062 180.261719 246.457031 181.230469 C 246 182.199219 245.519531 183.15625 245.015625 184.101562 C 244.511719 185.046875 243.984375 185.976562 243.433594 186.898438 C 242.882812 187.816406 242.3125 188.722656 241.714844 189.613281 C 241.121094 190.503906 240.507812 191.378906 239.867188 192.242188 C 239.230469 193.101562 238.574219 193.945312 237.894531 194.777344 C 237.214844 195.605469 236.519531 196.414062 235.800781 197.210938 C 235.082031 198.003906 234.34375 198.78125 233.585938 199.539062 C 232.832031 200.296875 232.054688 201.035156 231.261719 201.753906 C 230.46875 202.472656 229.660156 203.175781 228.832031 203.855469 C 228.007812 204.535156 227.164062 205.195312 226.304688 205.832031 C 225.445312 206.46875 224.570312 207.085938 223.679688 207.683594 C 222.792969 208.277344 221.886719 208.851562 220.96875 209.402344 C 220.050781 209.953125 219.121094 210.480469 218.179688 210.988281 C 217.234375 211.492188 216.28125 211.972656 215.3125 212.433594 C 214.34375 212.890625 213.367188 213.324219 212.378906 213.734375 C 211.390625 214.144531 210.394531 214.53125 209.386719 214.890625 C 208.378906 215.253906 207.363281 215.589844 206.339844 215.902344 C 205.316406 216.210938 204.285156 216.496094 203.246094 216.757812 C 202.210938 217.019531 201.164062 217.253906 200.117188 217.460938 C 199.066406 217.671875 198.011719 217.855469 196.957031 218.011719 C 195.898438 218.167969 194.835938 218.300781 193.769531 218.40625 C 192.707031 218.511719 191.640625 218.589844 190.570312 218.640625 C 189.503906 218.695312 188.433594 218.722656 187.363281 218.722656 C 186.292969 218.722656 185.226562 218.695312 184.15625 218.640625 C 183.085938 218.589844 182.019531 218.511719 180.957031 218.40625 C 179.890625 218.300781 178.832031 218.167969 177.773438 218.011719 C 176.714844 217.855469 175.660156 217.671875 174.609375 217.460938 C 173.5625 217.253906 172.519531 217.019531 171.480469 216.757812 C 170.441406 216.496094 169.410156 216.210938 168.386719 215.902344 C 167.363281 215.589844 166.347656 215.253906 165.339844 214.890625 C 164.335938 214.53125 163.335938 214.144531 162.347656 213.734375 C 161.359375 213.324219 160.382812 212.890625 159.414062 212.433594 C 158.449219 211.972656 157.492188 211.492188 156.546875 210.988281 C 155.605469 210.480469 154.675781 209.953125 153.757812 209.402344 C 152.839844 208.851562 151.9375 208.277344 151.046875 207.683594 C 150.15625 207.085938 149.28125 206.46875 148.421875 205.832031 C 147.5625 205.195312 146.71875 204.535156 145.894531 203.855469 C 145.066406 203.175781 144.257812 202.472656 143.464844 201.753906 C 142.671875 201.035156 141.898438 200.296875 141.140625 199.539062 C 140.382812 198.78125 139.644531 198.003906 138.929688 197.210938 C 138.210938 196.414062 137.511719 195.605469 136.832031 194.777344 C 136.152344 193.945312 135.496094 193.101562 134.859375 192.242188 C 134.222656 191.378906 133.605469 190.503906 133.011719 189.613281 C 132.417969 188.722656 131.84375 187.816406 131.292969 186.898438 C 130.746094 185.976562 130.21875 185.046875 129.710938 184.101562 C 129.207031 183.15625 128.726562 182.199219 128.269531 181.230469 C 127.8125 180.261719 127.378906 179.28125 126.96875 178.289062 C 126.5625 177.300781 126.175781 176.300781 125.816406 175.289062 C 125.453125 174.28125 125.121094 173.265625 124.808594 172.238281 C 124.5 171.210938 124.214844 170.179688 123.953125 169.140625 C 123.691406 168.101562 123.457031 167.054688 123.25 166.003906 C 123.042969 164.953125 122.859375 163.898438 122.703125 162.835938 C 122.542969 161.777344 122.414062 160.710938 122.308594 159.644531 C 122.203125 158.578125 122.125 157.511719 122.074219 156.441406 C 122.019531 155.371094 121.992188 154.296875 121.992188 153.226562 C 121.992188 152.15625 122.019531 151.082031 122.074219 150.011719 C 122.125 148.941406 122.203125 147.875 122.308594 146.808594 C 122.414062 145.738281 122.542969 144.675781 122.703125 143.617188 C 122.859375 142.554688 123.042969 141.5 123.25 140.449219 C 123.457031 139.398438 123.691406 138.351562 123.953125 137.3125 C 124.214844 136.273438 124.5 135.238281 124.808594 134.214844 C 125.121094 133.1875 125.453125 132.171875 125.816406 131.160156 C 126.175781 130.152344 126.5625 129.152344 126.96875 128.164062 C 127.378906 127.171875 127.8125 126.191406 128.269531 125.222656 C 128.726562 124.253906 129.207031 123.296875 129.710938 122.351562 C 130.21875 121.40625 130.746094 120.476562 131.292969 119.554688 C 131.84375 118.636719 132.417969 117.730469 133.011719 116.839844 C 133.605469 115.949219 134.222656 115.070312 134.859375 114.210938 C 135.496094 113.351562 136.152344 112.503906 136.832031 111.675781 C 137.511719 110.847656 138.210938 110.035156 138.929688 109.242188 C 139.644531 108.449219 140.382812 107.671875 141.140625 106.914062 C 141.898438 106.15625 142.671875 105.417969 143.464844 104.699219 C 144.257812 103.976562 145.066406 103.277344 145.894531 102.597656 C 146.71875 101.917969 147.5625 101.257812 148.421875 100.621094 C 149.28125 99.980469 150.15625 99.363281 151.046875 98.769531 C 151.9375 98.175781 152.839844 97.601562 153.757812 97.050781 C 154.675781 96.5 155.605469 95.96875 156.546875 95.464844 C 157.492188 94.960938 158.449219 94.476562 159.414062 94.019531 C 160.382812 93.5625 161.359375 93.128906 162.347656 92.71875 C 163.335938 92.308594 164.335938 91.921875 165.339844 91.558594 C 166.347656 91.199219 167.363281 90.863281 168.386719 90.550781 C 169.410156 90.242188 170.441406 89.953125 171.480469 89.695312 C 172.519531 89.433594 173.5625 89.199219 174.609375 88.992188 C 175.660156 88.78125 176.714844 88.597656 177.773438 88.441406 C 178.832031 88.285156 179.890625 88.152344 180.957031 88.046875 C 182.019531 87.941406 183.085938 87.863281 184.15625 87.8125 C 185.226562 87.757812 186.292969 87.730469 187.363281 87.730469 C 188.433594 87.730469 189.503906 87.757812 190.570312 87.8125 C 191.640625 87.863281 192.707031 87.941406 193.769531 88.046875 C 194.835938 88.152344 195.898438 88.285156 196.957031 88.441406 C 198.011719 88.597656 199.066406 88.78125 200.117188 88.992188 C 201.164062 89.199219 202.210938 89.433594 203.246094 89.695312 C 204.285156 89.953125 205.316406 90.242188 206.339844 90.550781 C 207.363281 90.863281 208.378906 91.199219 209.386719 91.558594 C 210.394531 91.921875 211.390625 92.308594 212.378906 92.71875 C 213.367188 93.128906 214.34375 93.5625 215.3125 94.019531 C 216.28125 94.476562 217.234375 94.960938 218.179688 95.464844 C 219.121094 95.96875 220.050781 96.5 220.96875 97.050781 C 221.886719 97.601562 222.792969 98.175781 223.679688 98.769531 C 224.570312 99.363281 225.445312 99.980469 226.304688 100.621094 C 227.164062 101.257812 228.007812 101.917969 228.832031 102.597656 C 229.660156 103.277344 230.46875 103.976562 231.261719 104.699219 C 232.054688 105.417969 232.832031 106.15625 233.585938 106.914062 C 234.34375 107.671875 235.082031 108.449219 235.800781 109.242188 C 236.519531 110.035156 237.214844 110.847656 237.894531 111.675781 C 238.574219 112.503906 239.230469 113.351562 239.867188 114.210938 C 240.507812 115.070312 241.121094 115.949219 241.714844 116.839844 C 242.3125 117.730469 242.882812 118.636719 243.433594 119.554688 C 243.984375 120.476562 244.511719 121.40625 245.015625 122.351562 C 245.519531 123.296875 246 124.253906 246.457031 125.222656 C 246.914062 126.191406 247.347656 127.171875 247.757812 128.164062 C 248.167969 129.152344 248.550781 130.152344 248.910156 131.160156 C 249.273438 132.171875 249.609375 133.1875 249.917969 134.214844 C 250.230469 135.238281 250.515625 136.273438 250.773438 137.3125 C 251.035156 138.351562 251.269531 139.398438 251.476562 140.449219 C 251.6875 141.5 251.867188 142.554688 252.027344 143.617188 C 252.183594 144.675781 252.3125 145.738281 252.417969 146.808594 C 252.523438 147.875 252.601562 148.941406 252.65625 150.011719 C 252.707031 151.082031 252.734375 152.15625 252.734375 153.226562 Z M 252.734375 153.226562 " fill-opacity="1" fill-rule="nonzero"/><path fill="#563d37" d="M 249.125 153.226562 C 249.125 155.253906 249.023438 157.273438 248.828125 159.292969 C 248.628906 161.308594 248.332031 163.308594 247.9375 165.296875 C 247.542969 167.285156 247.050781 169.25 246.464844 171.1875 C 245.878906 173.128906 245.195312 175.035156 244.421875 176.90625 C 243.648438 178.777344 242.785156 180.609375 241.832031 182.394531 C 240.878906 184.183594 239.839844 185.917969 238.714844 187.605469 C 237.589844 189.289062 236.386719 190.914062 235.105469 192.480469 C 233.820312 194.046875 232.464844 195.546875 231.035156 196.980469 C 229.605469 198.414062 228.105469 199.773438 226.542969 201.058594 C 224.980469 202.34375 223.359375 203.550781 221.675781 204.675781 C 219.992188 205.800781 218.261719 206.84375 216.476562 207.796875 C 214.691406 208.753906 212.867188 209.617188 211 210.394531 C 209.128906 211.167969 207.226562 211.851562 205.292969 212.441406 C 203.355469 213.027344 201.394531 213.519531 199.414062 213.914062 C 197.429688 214.3125 195.429688 214.609375 193.417969 214.804688 C 191.402344 215.003906 189.386719 215.105469 187.363281 215.105469 C 185.339844 215.105469 183.324219 215.003906 181.308594 214.804688 C 179.296875 214.609375 177.296875 214.3125 175.316406 213.914062 C 173.332031 213.519531 171.371094 213.027344 169.4375 212.441406 C 167.5 211.851562 165.597656 211.167969 163.730469 210.394531 C 161.859375 209.617188 160.035156 208.753906 158.25 207.796875 C 156.464844 206.84375 154.734375 205.800781 153.050781 204.675781 C 151.371094 203.550781 149.746094 202.34375 148.183594 201.058594 C 146.621094 199.773438 145.121094 198.414062 143.691406 196.980469 C 142.261719 195.546875 140.90625 194.046875 139.621094 192.480469 C 138.339844 190.914062 137.136719 189.289062 136.011719 187.605469 C 134.886719 185.917969 133.851562 184.183594 132.894531 182.394531 C 131.941406 180.609375 131.078125 178.777344 130.304688 176.90625 C 129.53125 175.035156 128.851562 173.128906 128.261719 171.1875 C 127.675781 169.25 127.183594 167.285156 126.789062 165.296875 C 126.394531 163.308594 126.097656 161.308594 125.902344 159.292969 C 125.703125 157.273438 125.605469 155.253906 125.605469 153.226562 C 125.605469 151.199219 125.703125 149.179688 125.902344 147.160156 C 126.097656 145.144531 126.394531 143.140625 126.789062 141.15625 C 127.183594 139.167969 127.675781 137.203125 128.261719 135.265625 C 128.851562 133.324219 129.53125 131.417969 130.304688 129.546875 C 131.078125 127.675781 131.941406 125.84375 132.894531 124.058594 C 133.851562 122.269531 134.886719 120.535156 136.011719 118.847656 C 137.136719 117.164062 138.339844 115.539062 139.621094 113.972656 C 140.90625 112.40625 142.261719 110.90625 143.691406 109.472656 C 145.121094 108.039062 146.621094 106.679688 148.183594 105.394531 C 149.746094 104.109375 151.371094 102.902344 153.050781 101.777344 C 154.734375 100.652344 156.464844 99.609375 158.25 98.65625 C 160.035156 97.699219 161.859375 96.832031 163.730469 96.058594 C 165.597656 95.28125 167.5 94.601562 169.4375 94.011719 C 171.371094 93.425781 173.332031 92.933594 175.316406 92.539062 C 177.296875 92.140625 179.296875 91.84375 181.308594 91.644531 C 183.324219 91.449219 185.339844 91.347656 187.363281 91.347656 C 189.386719 91.347656 191.402344 91.449219 193.417969 91.644531 C 195.429688 91.84375 197.429688 92.140625 199.414062 92.539062 C 201.394531 92.933594 203.355469 93.425781 205.292969 94.011719 C 207.226562 94.601562 209.128906 95.28125 211 96.058594 C 212.867188 96.832031 214.691406 97.699219 216.476562 98.65625 C 218.261719 99.609375 219.992188 100.652344 221.675781 101.777344 C 223.359375 102.902344 224.980469 104.109375 226.542969 105.394531 C 228.105469 106.679688 229.605469 108.039062 231.035156 109.472656 C 232.464844 110.90625 233.820312 112.40625 235.105469 113.972656 C 236.386719 115.539062 237.589844 117.164062 238.714844 118.847656 C 239.839844 120.535156 240.878906 122.269531 241.832031 124.058594 C 242.785156 125.84375 243.648438 127.675781 244.421875 129.546875 C 245.195312 131.417969 245.878906 133.324219 246.464844 135.265625 C 247.050781 137.203125 247.542969 139.167969 247.9375 141.15625 C 248.332031 143.140625 248.628906 145.144531 248.828125 147.160156 C 249.023438 149.179688 249.125 151.199219 249.125 153.226562 Z M 249.125 153.226562 " fill-opacity="1" fill-rule="nonzero"/><g clip-path="url(#ac4d3cd2cf)"><path fill="#fddbbd" d="M 144.734375 230.191406 C 147.035156 235.394531 160.65625 230.589844 168.648438 230.132812 C 174.78125 229.777344 191.308594 234.398438 206.652344 227.800781 C 216.839844 223.425781 218.144531 216.582031 216.894531 214.972656 C 214.242188 211.5625 205.488281 215.269531 195.746094 210.898438 C 193.234375 209.769531 191.425781 207.574219 191.082031 204.203125 C 190.464844 198.101562 193.632812 189.875 199.125 188.773438 C 205.628906 192.636719 212.382812 194.582031 215.09375 192.171875 C 217.402344 190.117188 215.421875 186.894531 216.125 185.085938 C 216.347656 184.507812 217.152344 183.238281 218.027344 183.066406 C 220.640625 182.558594 219.84375 180.140625 219.425781 179.976562 C 221.5 178.230469 221.007812 176.605469 220.273438 176.390625 C 218.398438 173.585938 224.417969 173.410156 224.035156 170.808594 C 223.628906 168.03125 219.613281 165.875 219.316406 162.089844 C 218.90625 156.878906 222.167969 152.359375 222.25 147.179688 C 222.359375 140.046875 219.074219 130.335938 210.054688 127.632812 C 199.894531 124.589844 186.480469 144.789062 173.757812 151.484375 C 175.886719 172.917969 164.976562 192.941406 158.582031 202.421875 C 153.605469 209.800781 140.511719 220.628906 144.734375 230.191406 Z M 144.734375 230.191406 " fill-opacity="1" fill-rule="evenodd"/></g><path fill="#fec8ad" d="M 205.21875 147.660156 C 201.5625 145.675781 187.804688 151.316406 183.816406 151.933594 C 183.5625 154.714844 177.046875 160.503906 177.601562 163.609375 C 178.472656 168.503906 182.410156 167.957031 183.933594 168 C 184.796875 173.730469 186.390625 179.152344 190.503906 182.976562 C 193.902344 186.132812 198.988281 187.574219 203.15625 189.476562 C 197.460938 185.132812 189.949219 178.457031 191.125 165.050781 C 197.121094 163.800781 206.601562 161.46875 205.21875 147.660156 Z M 205.21875 147.660156 " fill-opacity="1" fill-rule="evenodd"/><g clip-path="url(#74012c4419)"><path fill="#fdc0a4" d="M 177.996094 166.429688 C 185.214844 183.148438 194.898438 190.980469 193.515625 193.292969 C 191.632812 196.453125 190.726562 200.683594 191.082031 204.203125 C 191.425781 207.574219 193.234375 209.769531 195.746094 210.898438 C 199.839844 212.734375 203.757812 213.144531 207.121094 213.257812 C 205.140625 213.695312 193.613281 216.378906 188.191406 210.355469 C 182.683594 204.230469 181.535156 197.847656 181.085938 190.152344 C 180.835938 185.820312 180.679688 180.589844 179.164062 176.503906 C 176.308594 195.359375 164.410156 212.308594 166.429688 230.34375 C 158.355469 231.355469 146.832031 234.9375 144.734375 230.191406 C 140.511719 220.628906 153.605469 209.800781 158.582031 202.421875 C 164.972656 192.949219 175.871094 172.945312 173.765625 151.527344 L 173.8125 151.457031 C 178.363281 149.050781 173.449219 170.601562 177.996094 166.429688 Z M 177.996094 166.429688 " fill-opacity="1" fill-rule="evenodd"/></g><g clip-path="url(#4f3e9cf3d5)"><path fill="#f8ecdf" d="M 171.105469 176.195312 C 171.910156 174.40625 172.679688 172.605469 173.410156 170.792969 C 168.957031 189.316406 163.109375 198.027344 153.199219 213.457031 C 149.941406 218.53125 147.132812 226.128906 148.707031 232.496094 C 146.785156 232.265625 145.351562 231.589844 144.734375 230.191406 C 140.511719 220.628906 153.605469 209.800781 158.582031 202.421875 C 162.390625 196.777344 167.800781 187.394531 171.105469 176.195312 Z M 171.105469 176.195312 " fill-opacity="1" fill-rule="evenodd"/></g><path fill="#f8ecdf" d="M 179.199219 175.828125 C 177.933594 184.304688 175.144531 193.101562 171.695312 201.089844 C 176.171875 198.796875 179.601562 194.710938 181.460938 190.070312 C 181.34375 186.765625 180.460938 180.519531 179.199219 175.828125 Z M 179.199219 175.828125 " fill-opacity="1" fill-rule="evenodd"/><path fill="#f9bbac" d="M 220.253906 176.363281 C 217.289062 176.382812 215.195312 180.390625 213.453125 179.871094 C 214.726562 182.097656 217.28125 183.324219 218.433594 182.964844 C 218.449219 182.960938 218.464844 182.953125 218.484375 182.949219 C 220.542969 182.261719 219.816406 180.128906 219.425781 179.976562 C 221.5 178.230469 221.007812 176.605469 220.273438 176.390625 C 220.269531 176.382812 220.261719 176.375 220.253906 176.363281 Z M 220.253906 176.363281 " fill-opacity="1" fill-rule="evenodd"/><path fill="#e27f78" d="M 213.476562 179.875 C 214.265625 180.300781 215.085938 180.191406 215.917969 179.882812 C 217 179.476562 217.90625 178.769531 219.097656 178.664062 C 219.539062 178.625 220.03125 178.664062 220.453125 178.839844 C 220.222656 179.203125 219.886719 179.585938 219.425781 179.976562 C 219.429688 179.976562 219.429688 179.976562 219.433594 179.980469 C 219.113281 179.96875 218.785156 179.921875 218.480469 179.914062 C 217.5625 179.894531 216.671875 180.113281 215.765625 180.238281 C 214.992188 180.347656 214.207031 180.347656 213.539062 179.929688 C 214.84375 181.070312 216.5625 182.15625 218.320312 182.25 C 218.738281 182.273438 219.207031 182.246094 219.625 182.109375 C 219.417969 182.453125 219.058594 182.757812 218.484375 182.949219 C 218.464844 182.953125 218.449219 182.960938 218.433594 182.964844 C 217.28125 183.324219 214.726562 182.097656 213.453125 179.871094 C 213.460938 179.871094 213.46875 179.875 213.476562 179.875 Z M 213.476562 179.875 " fill-opacity="1" fill-rule="evenodd"/><path fill="#c67758" d="M 191.011719 202.273438 C 191.136719 196.515625 194.171875 189.8125 199.070312 188.785156 C 194.824219 186.527344 189.367188 184.476562 186.746094 180.46875 C 184.449219 176.953125 184.050781 171.90625 183.722656 167.835938 C 182.726562 167.953125 182.132812 168.042969 181.132812 167.773438 C 177.824219 166.890625 176.007812 163.332031 176.160156 160.117188 C 175.019531 164.417969 177.992188 167.597656 179.667969 170.84375 C 181.28125 173.960938 181.707031 177.492188 183.140625 180.667969 C 184.871094 184.496094 187.445312 187.789062 188.667969 191.875 C 189.324219 194.070312 190.203125 198.90625 191.011719 202.273438 Z M 191.011719 202.273438 " fill-opacity="1" fill-rule="evenodd"/><path fill="#924121" d="M 177.988281 165.722656 C 180.503906 169.316406 182.953125 173.125 185.089844 176.789062 C 184.207031 173.886719 183.949219 170.628906 183.722656 167.835938 C 182.726562 167.953125 182.132812 168.042969 181.132812 167.773438 C 179.851562 167.433594 178.796875 166.6875 177.988281 165.722656 Z M 177.988281 165.722656 " fill-opacity="1" fill-rule="evenodd"/><path fill="#f8ecdf" d="M 179.320312 162.433594 C 179.082031 159.386719 179.875 156.269531 180.828125 153.40625 C 185.671875 138.871094 200.605469 126.34375 216.191406 126.011719 C 219.488281 135.945312 215.433594 146.285156 205.503906 149.871094 C 205.429688 151.621094 205.289062 153.390625 204.792969 155.082031 C 201.347656 166.738281 187.617188 159.578125 179.320312 162.433594 Z M 179.320312 162.433594 " fill-opacity="1" fill-rule="evenodd"/><path fill="#f8b99d" d="M 213.984375 161.015625 C 215.742188 159.339844 216.804688 155.054688 213.351562 154.6875 C 210.894531 154.429688 208.851562 156.484375 206.222656 156.042969 C 207.511719 158.960938 210.433594 161.828125 213.984375 161.015625 Z M 213.984375 161.015625 " fill-opacity="1" fill-rule="evenodd"/><path fill="#924121" d="M 204.6875 152.476562 C 205.449219 151.089844 209.148438 146.71875 215.429688 148.066406 C 219.996094 149.042969 220.453125 153.628906 218.898438 154.550781 C 218.605469 153.457031 217.171875 150.476562 214.644531 149.515625 C 211.113281 148.175781 207.230469 150.027344 204.6875 152.476562 Z M 204.6875 152.476562 " fill-opacity="1" fill-rule="evenodd"/><path fill="#924121" d="M 217.910156 174.019531 C 218.464844 173.140625 220.890625 171.890625 221.09375 172.488281 C 221.296875 173.082031 219.605469 172.714844 217.910156 174.019531 Z M 217.910156 174.019531 " fill-opacity="1" fill-rule="evenodd"/><path fill="#924121" d="M 218.28125 180.132812 C 218.550781 180.183594 219.105469 180.273438 219.351562 180.097656 C 219.492188 180 219.429688 179.824219 219.324219 179.722656 C 219.164062 179.574219 218.917969 179.550781 218.710938 179.558594 C 217.351562 179.625 216.011719 180.292969 214.46875 180.183594 C 214.144531 180.15625 213.738281 179.992188 213.574219 179.816406 C 213.289062 179.519531 213 179.402344 212.878906 179.578125 C 212.703125 179.820312 213.730469 180.621094 215.859375 180.324219 C 216.640625 180.214844 217.492188 180.03125 218.28125 180.132812 Z M 218.28125 180.132812 " fill-opacity="1" fill-rule="evenodd"/><path fill="#924121" d="M 217.1875 159.871094 C 215.207031 160.5 213.714844 162.171875 211.484375 161.925781 C 211.125 161.882812 210.773438 161.789062 210.441406 161.648438 C 209.972656 161.453125 209.554688 161.171875 209.164062 160.847656 C 208.671875 160.445312 208.265625 159.949219 207.902344 159.425781 C 207.445312 158.769531 207.082031 158.035156 206.824219 157.277344 C 207.210938 157.855469 207.640625 158.394531 208.183594 158.832031 C 209.851562 160.183594 211.859375 160.535156 213.945312 160.292969 C 215.035156 160.164062 216.089844 159.878906 217.1875 159.871094 Z M 217.1875 159.871094 " fill-opacity="1" fill-rule="evenodd"/><path fill="#924121" d="M 208.398438 155.855469 C 209.183594 155.578125 211.054688 154.222656 213.03125 154.328125 C 214.347656 154.398438 215.792969 155.410156 215.59375 156.839844 C 215.484375 156.457031 215.296875 156.109375 215.007812 155.832031 C 214.785156 155.617188 214.542969 155.441406 214.261719 155.3125 C 212.25 154.371094 210.402344 155.769531 208.398438 155.855469 Z M 208.398438 155.855469 " fill-opacity="1" fill-rule="evenodd"/><path fill="#924121" d="M 195.238281 213.703125 C 189.167969 213.082031 184.835938 208.613281 183.09375 202.949219 C 180.601562 194.847656 181.144531 185.238281 179.535156 176.769531 C 182.699219 188.15625 180.671875 209.605469 195.238281 213.703125 Z M 195.238281 213.703125 " fill-opacity="1" fill-rule="evenodd"/><path fill="#e5bbb2" d="M 176.652344 170.472656 C 173.933594 181.859375 163.050781 179.886719 159.933594 179.070312 C 151.792969 176.929688 144.429688 169.269531 145.9375 157.074219 C 140.691406 159.972656 133.496094 155.65625 132.460938 149.109375 C 131.503906 143.019531 136.101562 135.761719 144.671875 135.996094 C 132.429688 128.042969 143.289062 108.632812 157.433594 116.410156 C 155.078125 110.933594 160.410156 104.386719 166 103.417969 C 171.605469 102.445312 178.503906 105.742188 178.664062 112.972656 C 181.660156 107.707031 192.972656 102 200.007812 104.871094 C 217.390625 102.5 221.980469 117.082031 218.542969 121.058594 C 225.578125 117.402344 233.921875 122.113281 236.085938 126.324219 C 229.8125 120.789062 221.445312 121.007812 216.628906 124.035156 C 226.609375 119.605469 239.730469 125.441406 241.449219 136.652344 C 238.277344 126.640625 224.621094 120.789062 216.898438 125.882812 C 233.136719 120.019531 243.023438 135.777344 241.039062 145.167969 C 240.90625 141.417969 237.898438 129.191406 226.589844 126.453125 C 241.148438 132.265625 242.164062 150.292969 237.390625 158.855469 C 239.980469 150.765625 238.890625 143.792969 236.617188 138.394531 C 231.765625 126.847656 222.292969 126.402344 219.070312 127.175781 C 222.480469 126.832031 226.085938 127.734375 228.984375 129.730469 C 241.847656 138.585938 237.933594 162.640625 222.625 165.253906 C 230.230469 162.542969 236.097656 150.394531 232.355469 141.503906 C 229.886719 135.652344 223.589844 132.386719 217.742188 130.660156 C 226.617188 135.335938 229.335938 146.597656 223.71875 156 C 228.824219 143.800781 221.6875 134.785156 213.78125 131.621094 C 214.886719 138.972656 210.847656 145.957031 203.472656 148.914062 C 202.554688 170.980469 183.179688 154.957031 176.652344 170.472656 Z M 176.652344 170.472656 " fill-opacity="1" fill-rule="evenodd"/><path fill="#dfaea4" d="M 175.140625 132.039062 C 179.648438 130.394531 182.546875 126.066406 186.664062 123.730469 C 195.207031 118.882812 204.988281 122.328125 210.144531 130.167969 C 214.457031 119.082031 204.484375 111.285156 193.910156 114.457031 C 184.769531 117.195312 181.261719 125.699219 175.140625 132.039062 Z M 175.140625 132.039062 " fill-opacity="1" fill-rule="evenodd"/><path fill="#f8ecdf" d="M 178.429688 110.964844 C 178.566406 111.59375 178.648438 112.265625 178.664062 112.972656 C 181.660156 107.707031 192.972656 102 200.007812 104.871094 C 190.859375 104.714844 185.429688 107.695312 180.125 113.183594 C 176.910156 116.507812 173.589844 123.1875 168.882812 124.328125 C 160.78125 126.289062 156.433594 114.003906 164.609375 111.777344 C 163.871094 112.601562 163.253906 113.523438 162.917969 114.585938 C 161.917969 117.753906 165.003906 121.089844 168.300781 120.578125 C 174.640625 119.59375 175.691406 111.480469 171.214844 106.777344 C 174.882812 107.355469 176.828125 110.625 177.230469 113.410156 C 177.578125 112.648438 177.976562 111.78125 178.429688 110.964844 Z M 178.429688 110.964844 " fill-opacity="1" fill-rule="evenodd"/><path fill="#f8ecdf" d="M 197.8125 150.132812 C 204.738281 145.253906 210.113281 136.097656 203.160156 130.09375 C 201.175781 128.378906 197.90625 127.285156 195.300781 127.128906 C 182.359375 126.347656 173.101562 142.324219 160.734375 139.046875 C 165.167969 141.015625 168.089844 141.679688 172.832031 140.21875 C 178.527344 138.457031 183.617188 133.578125 189.808594 133.476562 C 200.425781 133.304688 202.394531 144.242188 197.8125 150.132812 Z M 197.8125 150.132812 " fill-opacity="1" fill-rule="evenodd"/><path fill="#f8ecdf" d="M 155.816406 126.894531 C 156.652344 123.132812 152.203125 119.960938 149.226562 123.085938 C 146.066406 126.402344 147.640625 130.5 152.773438 131.652344 C 157.1875 132.644531 159.542969 127.335938 160.386719 123.085938 C 168.007812 136.671875 177.320312 119.78125 186.894531 111.910156 C 190.792969 108.703125 198.394531 107.730469 202.929688 110.582031 C 186.894531 107.058594 184.613281 122.078125 176.019531 130.671875 C 161.269531 145.417969 141.652344 136.566406 144.449219 125.417969 C 145.390625 121.660156 149.472656 118.296875 154.191406 119.78125 C 157.945312 120.960938 157.25 125.5 155.816406 126.894531 Z M 155.816406 126.894531 " fill-opacity="1" fill-rule="evenodd"/><path fill="#f9bcb3" d="M 164.824219 161.605469 C 169.597656 164.238281 171.640625 159.234375 174.101562 156.085938 C 175.65625 154.09375 177.78125 152.511719 180.222656 151.804688 C 187.367188 149.738281 194.957031 158.328125 200.769531 151.082031 C 194.523438 155.8125 190.910156 148.828125 186.636719 145.183594 C 183.515625 142.519531 179.417969 141.683594 175.445312 142.519531 C 170.324219 143.59375 166.523438 148.136719 166.003906 153.292969 C 165.734375 155.941406 166.679688 159.371094 164.824219 161.605469 Z M 164.824219 161.605469 " fill-opacity="1" fill-rule="evenodd"/><path fill="#f9b89e" d="M 169.382812 162.472656 C 164.847656 163.808594 161.921875 158.050781 160.40625 154.308594 C 157.1875 146.367188 153.914062 138.980469 146.058594 137.425781 C 139.140625 136.050781 131.894531 142.941406 134.59375 150 C 135.835938 153.242188 140.863281 155.597656 143.859375 151.671875 C 138.058594 153.75 134.925781 145.164062 142.140625 143.394531 C 144.605469 142.789062 147.683594 144.742188 149.566406 150.214844 C 151.019531 154.4375 152.480469 158.914062 155.761719 162.070312 C 159.601562 165.761719 165.441406 166.5625 169.382812 162.472656 Z M 169.382812 162.472656 " fill-opacity="1" fill-rule="evenodd"/><path fill="#f8ecdf" d="M 199.953125 152.660156 C 194.039062 160.921875 187.871094 154.644531 180.351562 156.605469 C 177.035156 157.472656 174.769531 161.027344 172.230469 162.996094 C 161.53125 171.304688 153.8125 167.210938 150.25 159.953125 C 148.355469 156.085938 149.558594 150.820312 148.039062 147.15625 C 151.265625 153.085938 152.121094 163.332031 162.03125 165.171875 C 170.410156 166.722656 172.621094 153.667969 180.664062 151.628906 C 187.125 149.988281 193.714844 157.117188 199.871094 152.722656 " fill-opacity="1" fill-rule="evenodd"/><path fill="#fcae95" d="M 182.722656 161.792969 C 174.203125 163.648438 172.84375 171.230469 167.929688 172.847656 C 160.085938 175.425781 151.960938 171.5 149.042969 163.921875 C 147.878906 160.898438 147.734375 158.917969 148.003906 154.882812 C 145.234375 162.609375 151.09375 179.042969 167.425781 177.925781 C 174.679688 177.429688 174.953125 164.476562 182.722656 161.792969 Z M 182.722656 161.792969 " fill-opacity="1" fill-rule="evenodd"/><path fill="#df9b92" d="M 175.566406 140.074219 C 178.296875 140.972656 181.003906 139.875 183.691406 139.355469 C 186.402344 138.832031 188.980469 139.039062 191.472656 140.324219 C 192.464844 140.835938 193.308594 141.527344 194.0625 142.347656 C 194.949219 143.316406 195.699219 144.449219 196.199219 145.667969 C 196.832031 147.203125 197.140625 148.707031 197.214844 150.363281 C 198.066406 148.703125 198.753906 146.820312 198.652344 144.921875 C 198.339844 139.203125 193.058594 135.144531 187.566406 135.445312 C 183.304688 135.675781 179.585938 138.933594 175.566406 140.074219 Z M 175.566406 140.074219 " fill-opacity="1" fill-rule="evenodd"/><path fill="#d19072" d="M 162.761719 164.652344 C 158.023438 162.359375 157.761719 153.808594 157.316406 150.953125 C 156.859375 148.066406 153.867188 137.628906 143.917969 137.824219 C 138.734375 137.925781 135.101562 141.558594 134.535156 145.609375 C 133.378906 153.886719 141.476562 157.753906 145.964844 154.613281 C 140.628906 159.339844 132.980469 153.671875 133.4375 146.523438 C 133.78125 141.1875 138.640625 136.859375 143.984375 136.90625 C 150.75 136.96875 154.214844 139.953125 158.789062 149.453125 C 162.285156 156.707031 164.027344 160.550781 166.035156 161.644531 C 167.375 162.375 168.519531 162.125 169.375 161.648438 C 171.578125 159.054688 175.226562 151.554688 182.054688 150.933594 C 188.328125 150.359375 195.265625 157.449219 200.472656 151.535156 C 197.222656 156.746094 191.132812 153.660156 186.804688 152.402344 C 174.972656 148.964844 172.695312 163.324219 165.996094 166.761719 C 162.476562 168.566406 157.914062 168.179688 154.765625 166.128906 C 152.367188 164.566406 149.769531 161.464844 149.542969 157.769531 C 152.300781 165.328125 159.972656 169.148438 166.53125 165.191406 C 156.25 168.8125 150.679688 157.941406 148.976562 149.558594 C 149.460938 153.660156 147.570312 157.589844 149.058594 161.9375 C 152.625 172.367188 164.5625 171.230469 169.621094 168.28125 C 163.15625 173.957031 152.039062 171.449219 148.558594 164.15625 C 149.820312 170.15625 155.339844 173.488281 161.128906 174.320312 C 171.425781 175.804688 174.511719 168.480469 177.4375 165.191406 C 178.746094 163.71875 180.453125 162.253906 182.390625 161.707031 C 180.417969 162.109375 178.191406 161.671875 176.253906 162.269531 C 173.351562 163.167969 171.28125 166.632812 172.105469 169.707031 C 170.289062 167.820312 171.167969 164.519531 173.289062 162.851562 C 176.414062 160.386719 182.097656 160.640625 184.796875 160.660156 C 189.21875 160.695312 192.203125 160.871094 196.765625 157.738281 C 191.980469 162.863281 183.660156 161.433594 180.921875 163.109375 C 174.503906 167.046875 175.578125 177.863281 166.105469 178.484375 C 160.402344 178.855469 148.238281 172.863281 146.707031 162.058594 C 146.042969 157.375 149.695312 150.808594 146.726562 146.46875 C 144.652344 143.433594 141.664062 143.582031 139.964844 145.046875 C 136.347656 148.164062 140.613281 153.714844 143.308594 150.765625 C 144.160156 149.835938 143.308594 148.167969 141.679688 148.160156 C 143.5 146.671875 145.789062 148.730469 144.765625 150.800781 C 144.128906 152.085938 142.367188 153.363281 139.929688 152.070312 C 137.230469 150.640625 136.496094 146.550781 139.039062 144.226562 C 142.222656 141.3125 146.675781 143.140625 148.414062 145.863281 C 150.070312 148.457031 150.769531 152.410156 151.570312 154.476562 C 152.527344 156.941406 153.636719 158.878906 154.832031 160.371094 C 154.308594 159.316406 153.890625 158.125 153.53125 156.875 C 152.40625 152.957031 151.863281 148.472656 149.898438 145.082031 C 152.734375 148.042969 153.15625 153.039062 154.652344 157.480469 C 155.480469 159.945312 156.757812 162.246094 158.601562 163.550781 L 158.601562 163.546875 C 156.203125 161.164062 155.929688 156.976562 155.339844 154.191406 C 153.941406 147.570312 148.75 138.492188 140.457031 140.566406 C 146.113281 137.734375 151.566406 142.871094 153.757812 146.675781 C 157.582031 153.3125 156.285156 161.089844 160.246094 164.03125 C 160.46875 164.199219 160.667969 164.332031 160.859375 164.441406 C 161.5 164.585938 162.136719 164.652344 162.761719 164.652344 Z M 174.078125 171.140625 C 173.355469 172.011719 171.371094 174.085938 168.136719 175.152344 C 164.902344 176.21875 160.417969 176.28125 154.699219 173.132812 C 169.351562 183.449219 172.777344 173.066406 174.078125 171.140625 Z M 199.320312 150.550781 C 201.234375 148.355469 203.972656 147.828125 206.117188 146.210938 C 211.371094 142.257812 212.808594 135.960938 211.847656 130.800781 C 218.300781 129.90625 224.160156 136.773438 225.589844 142.457031 C 225.996094 144.074219 226.082031 145.820312 226.019531 147.476562 C 227.144531 141.453125 223.117188 133.390625 217.417969 130.90625 C 220.207031 130.648438 223.199219 132.03125 225.511719 133.4375 C 229.261719 135.71875 232.363281 139.273438 233.496094 143.59375 C 234.410156 147.066406 233.875 150.714844 232.777344 154.074219 C 231.210938 158.859375 228.460938 163.496094 223.636719 165.527344 C 230.523438 163.886719 234.398438 156.628906 235.65625 150.195312 C 235.914062 148.886719 236.203125 147.558594 236.230469 146.21875 C 236.269531 144.464844 236.101562 142.726562 235.769531 141.007812 C 235.339844 138.789062 234.796875 136.546875 233.578125 134.609375 C 229.980469 128.914062 223.246094 127.25 216.949219 127.480469 C 220.511719 125.941406 224.8125 126.949219 228.140625 128.597656 C 238.75 133.859375 240.824219 147.976562 237.347656 158.332031 C 238.398438 156.425781 238.894531 154.421875 239.316406 152.296875 C 240.769531 144.964844 238.972656 136.496094 233.605469 131.089844 C 230.714844 128.179688 226.761719 126.351562 222.722656 125.824219 C 225.703125 125.800781 228.523438 126.933594 231.019531 128.492188 C 237.261719 132.390625 241.386719 139.484375 240.316406 146.984375 C 241.617188 141.332031 239.28125 134.507812 235.203125 130.421875 C 232.03125 127.234375 227.378906 125.082031 222.863281 124.851562 C 220.136719 124.714844 217.429688 125.5 214.984375 126.648438 C 216.472656 125.34375 218.429688 124.601562 220.316406 124.105469 C 222.203125 123.609375 224.113281 123.21875 226.078125 123.402344 C 233.003906 124.046875 238.976562 129.554688 241.117188 136.054688 C 240.144531 131.867188 237.726562 128.167969 234.144531 125.714844 C 228.796875 122.046875 221.191406 121.757812 215.558594 124.867188 C 221.605469 120.035156 230.34375 121.050781 235.878906 126.253906 C 234.679688 124.300781 232.433594 123.046875 230.394531 122.175781 C 228.386719 121.320312 226.21875 120.773438 224.023438 120.789062 C 218.621094 120.820312 212.984375 124.808594 210.148438 129.414062 C 211.753906 132.886719 211.601562 139.691406 207.027344 144.464844 C 204.984375 146.601562 200.882812 147.777344 199.320312 150.550781 Z M 167.410156 163.316406 C 164.644531 163.15625 161.757812 159.613281 158.347656 150.972656 C 159.140625 161.292969 162.484375 163.808594 164.507812 164.476562 C 165.566406 164.257812 166.546875 163.851562 167.410156 163.316406 Z M 167.015625 160.964844 C 167.929688 160.851562 168.695312 160.207031 169.242188 159.507812 C 170.390625 158.054688 170.96875 156.144531 171.886719 154.542969 C 174.132812 150.632812 177.546875 148.574219 181.128906 149.246094 C 176.996094 148.878906 173.246094 152.332031 171.800781 155.976562 C 171.640625 156.378906 171.425781 156.757812 171.238281 157.148438 C 171.085938 157.464844 170.9375 157.785156 170.773438 158.101562 C 170.089844 159.410156 168.796875 161.417969 167.015625 160.964844 Z M 174.886719 160.785156 C 176.289062 158.347656 180.367188 156.402344 186.671875 157.359375 C 191.949219 158.164062 198.789062 157.949219 201.40625 153.085938 C 197.28125 158.519531 188.679688 156.066406 183.535156 155.96875 C 180.070312 155.90625 176.035156 157.183594 174.886719 160.785156 Z M 175.921875 160.390625 C 177.15625 159.601562 178.582031 159.011719 180.058594 158.695312 C 181.535156 158.375 183.0625 158.320312 184.507812 158.605469 C 181.480469 157.433594 178.195312 158.039062 175.921875 160.390625 Z M 167.929688 159.523438 C 163.976562 155.53125 171.3125 145.023438 176.894531 145.3125 C 174.976562 145.464844 173.003906 146.761719 171.574219 148.210938 C 168.710938 151.113281 166.972656 155.253906 167.929688 159.523438 Z M 216.132812 129.914062 C 218.75 129.210938 226.054688 129.417969 231.367188 135.664062 C 236.191406 141.335938 236.789062 151.671875 231.875 157.808594 C 235.324219 152.171875 235.511719 144.265625 232.4375 138.847656 C 229.152344 133.050781 222.972656 129.855469 216.132812 129.914062 Z M 164.929688 157.28125 C 163.085938 155.171875 162.195312 151.65625 163.136719 149.027344 C 163.804688 147.15625 165.300781 145.621094 167.03125 144.703125 C 162.976562 147.621094 162.78125 153.132812 164.929688 157.28125 Z M 169.3125 157.246094 C 170.980469 155.003906 170.902344 152.25 172.757812 150.132812 C 177.160156 145.113281 185.453125 145.550781 190.058594 150.644531 C 188.824219 149.367188 180.585938 144.488281 174.324219 150.097656 C 172.191406 152.003906 171.660156 155.179688 169.3125 157.246094 Z M 165.84375 155.617188 C 165.589844 151.117188 169.957031 142.425781 178.390625 142.722656 C 189.152344 143.101562 190.328125 152.609375 195.316406 152.761719 C 190.285156 151.847656 189.828125 142.117188 178.300781 141.640625 C 168.679688 141.242188 164.289062 151.816406 165.84375 155.617188 Z M 145.265625 151.777344 C 144.472656 153.675781 141.78125 154.601562 139.808594 154.007812 C 138.117188 153.5 136.726562 152.023438 136.082031 150.617188 C 134.574219 147.324219 135.976562 143.242188 139.339844 141.234375 C 138.125 142.394531 135.453125 145.492188 136.628906 149.144531 C 138.140625 153.847656 143.257812 154.664062 145.265625 151.777344 Z M 185.417969 139.78125 C 189.207031 140.179688 192.75 142.148438 194.53125 145.625 C 195.394531 147.304688 195.628906 149.164062 196.234375 150.929688 C 196.183594 149.324219 196.273438 147.804688 195.785156 146.246094 C 194.972656 143.667969 192.9375 141.414062 190.410156 140.445312 C 188.878906 139.859375 187.050781 139.75 185.417969 139.78125 Z M 163.699219 139.914062 C 166.195312 141.371094 169.34375 141.527344 172.171875 140.949219 C 177.574219 139.84375 184.273438 132.363281 192.183594 134.15625 C 194.707031 134.726562 199.050781 137.226562 199.78125 141.902344 C 200.148438 144.257812 199.683594 147.472656 197.128906 150.757812 C 203.320312 144.640625 200.753906 134.328125 192.066406 132.882812 C 183.886719 131.519531 179.226562 137.664062 172.109375 140.011719 C 169.433594 140.894531 166.402344 140.507812 163.699219 139.914062 Z M 145.730469 150.398438 C 146.316406 149.34375 146.140625 147.445312 145.339844 146.371094 C 144.226562 144.871094 141.753906 144.566406 140.515625 146.273438 C 139.753906 147.316406 140.148438 148.902344 141.324219 149.394531 C 140.363281 148.339844 140.941406 146.554688 142.308594 146.1875 C 144.640625 145.5625 146.1875 148.382812 145.730469 150.398438 Z M 181.40625 137.285156 C 182.300781 137.445312 183.265625 137.183594 184.128906 136.996094 C 185.589844 136.679688 187.015625 136.285156 188.523438 136.304688 C 189.40625 136.316406 190.296875 136.425781 191.140625 136.695312 C 191.863281 136.921875 192.574219 137.246094 193.21875 137.648438 C 196.515625 139.6875 197.695312 143.574219 197.660156 147.273438 C 198.433594 141.878906 194.769531 135.882812 188.980469 135.273438 C 186.175781 134.976562 183.820312 135.988281 181.40625 137.285156 Z M 171.453125 137.527344 C 174.851562 136.804688 178.371094 133.964844 180.660156 132.386719 C 183.324219 130.550781 187.378906 128.851562 190.5625 128.179688 C 195.933594 127.050781 202.835938 128.488281 205.222656 133.476562 C 205.828125 134.746094 208 139.65625 201.386719 146.839844 C 207.777344 141.304688 207.359375 135.625 205.949219 132.890625 C 203.839844 128.789062 198.527344 126.214844 193.363281 126.632812 C 189.132812 126.972656 184.644531 128.523438 180.851562 131.027344 C 180.507812 131.253906 180.167969 131.492188 179.828125 131.738281 C 177.070312 133.738281 174.546875 136.195312 171.453125 137.527344 Z M 163.871094 145.085938 C 162.84375 146.289062 161.261719 147.003906 159.699219 146.421875 C 159.390625 146.308594 159.101562 146.136719 158.839844 145.941406 C 158.265625 145.503906 157.828125 144.894531 157.503906 144.253906 C 159.167969 145.832031 161.824219 146.011719 163.871094 145.085938 Z M 170.492188 141.949219 C 167.9375 143.535156 164.851562 144.332031 161.917969 144.089844 C 158.988281 143.847656 156.214844 142.558594 154.292969 139.976562 C 158.832031 143.574219 165.167969 143.632812 170.492188 141.949219 Z M 184.886719 131.210938 C 190.082031 129.828125 195.296875 129.988281 198.84375 131.957031 C 202.386719 133.925781 204.261719 137.703125 202.769531 143.558594 C 207.9375 130.046875 192.492188 126.609375 184.886719 131.210938 Z M 158.980469 119.605469 C 157.574219 116.546875 157.730469 112.726562 159.867188 109.5 C 166.347656 99.710938 179.667969 105.601562 177.488281 115.6875 C 182.945312 108.425781 191.007812 104.476562 199.488281 105.761719 C 203.375 105.113281 207.007812 105.109375 210.617188 107.03125 C 216.988281 110.421875 218.972656 117.671875 214.199219 123.316406 C 215.214844 119.390625 213.535156 115.550781 210.820312 112.722656 C 206.597656 108.320312 200.8125 106.144531 194.722656 106.675781 C 188.839844 107.191406 183.296875 110.445312 179.328125 114.730469 C 177.441406 116.765625 172.59375 125.671875 166.820312 125.097656 C 163.878906 124.804688 161.570312 123.394531 160.0625 121.410156 C 160.6875 122.820312 160.945312 124.414062 160.765625 126.0625 C 160.007812 133.015625 151.25 135.074219 148.015625 129.710938 C 146.296875 126.859375 147.339844 122.605469 151.179688 121.546875 C 148.101562 123.382812 147.417969 127.273438 149.359375 129.640625 C 149.808594 130.1875 150.320312 130.589844 150.863281 130.875 C 149.867188 129.945312 149.273438 128.609375 149.429688 127.164062 C 149.59375 125.660156 150.527344 124.269531 151.734375 123.402344 C 150.820312 124.398438 150.011719 125.59375 149.9375 126.996094 C 149.769531 130.078125 152.515625 131.632812 154.773438 131.101562 C 158.097656 130.039062 160.949219 126.15625 159.15625 122.109375 C 157.109375 117.496094 150.726562 116.367188 146.902344 119.042969 C 141.136719 123.074219 140.894531 129.75 146.421875 134.101562 C 148.070312 135.394531 149.828125 136.425781 151.847656 137.023438 C 160.03125 139.460938 168.125 136.824219 173.117188 132.816406 C 177.453125 129.332031 181.472656 121.195312 186.683594 117.0625 C 191.285156 113.417969 198 111.886719 203.3125 113.921875 C 205.882812 114.90625 208.496094 116.78125 209.367188 119.457031 C 201.523438 108.949219 188.039062 115.308594 182.308594 123.324219 C 187.003906 119.152344 193.742188 117.410156 199.714844 119.726562 C 193.371094 118.039062 187.269531 119.667969 182.394531 124.035156 C 181.523438 124.816406 180.796875 125.71875 180.082031 126.625 C 179.171875 127.921875 178.21875 129.171875 177.160156 130.351562 C 178.960938 129.453125 181.167969 127.1875 182.078125 126.347656 C 184.222656 124.363281 187.308594 122.691406 190.125 121.847656 C 197.027344 119.78125 206.382812 122.296875 209.152344 129.765625 C 210.046875 132.175781 210.167969 134.191406 209.546875 136.605469 C 209.707031 133.859375 209.328125 131.410156 208.011719 128.960938 C 204.972656 123.304688 197.523438 121.179688 191.621094 122.609375 C 188.792969 123.296875 186.441406 124.710938 184.65625 126.027344 C 185.011719 125.847656 185.371094 125.675781 185.730469 125.507812 C 193.765625 121.773438 203.519531 122.488281 207.097656 129.726562 C 203.472656 124.511719 195.691406 123.535156 190.066406 125.003906 C 180.054688 127.621094 166.765625 145.25 149.121094 137.75 C 134.546875 131.558594 141.492188 115.128906 152.25 116.082031 C 155.140625 116.339844 157.480469 117.675781 158.980469 119.605469 Z M 169.136719 131.726562 C 165.277344 133.042969 162.828125 136.3125 155.199219 136.335938 C 150.6875 136.351562 147.304688 133.941406 145.640625 131.6875 C 142.429688 127.332031 144.78125 122.660156 146.851562 121.707031 C 140.976562 127.96875 148.328125 134.957031 155.066406 135.007812 C 162.070312 135.058594 162.949219 132.484375 169.136719 131.726562 Z M 171.386719 129.546875 C 177.6875 126.972656 178.433594 118.269531 185.976562 112.851562 C 190.847656 109.347656 195.863281 109.070312 201.5625 109.726562 C 192.554688 106.207031 184 111.316406 178.890625 118.953125 C 176.28125 122.851562 175.578125 126.945312 171.386719 129.546875 Z M 149.429688 120.335938 C 151.898438 119.28125 155.417969 119.949219 156.324219 122.738281 C 156.496094 123.269531 156.5625 123.824219 156.542969 124.382812 C 156.476562 126.242188 155.273438 127.777344 153.929688 128.953125 C 154.820312 128.523438 155.570312 127.925781 156.171875 127.136719 C 156.652344 126.503906 157.003906 125.769531 157.175781 124.992188 C 157.320312 124.351562 157.359375 123.691406 157.25 123.039062 C 156.609375 119.242188 152.222656 118.0625 149.429688 120.335938 Z M 174.703125 123.175781 C 173.953125 125.328125 170.28125 129.339844 165.863281 128.621094 C 163.769531 128.28125 162.101562 126.894531 161.714844 124.964844 C 165.347656 129.835938 171.757812 127.261719 174.703125 123.175781 Z M 202.085938 111.84375 C 203.871094 111.738281 207.308594 112.484375 209.53125 115.210938 C 212.546875 118.910156 213.007812 124.601562 210.015625 128.335938 C 210.832031 126.320312 211.40625 124.246094 211.191406 122.046875 C 210.699219 116.984375 207 112.792969 202.085938 111.84375 Z M 175.875 128.222656 C 177.304688 125.339844 179.417969 122.308594 181.617188 119.953125 C 183.851562 117.5625 186.15625 115.859375 188.941406 114.175781 C 182.796875 116.78125 178.15625 121.960938 175.875 128.222656 Z M 211.113281 115.363281 C 212.636719 117.984375 213.417969 121.222656 212.679688 124.214844 C 212.441406 125.179688 212.011719 126.042969 211.527344 126.902344 C 213.566406 124.480469 214.214844 121.195312 213.03125 118.207031 C 212.578125 117.070312 211.902344 116.28125 211.113281 115.363281 Z M 189.207031 118.402344 C 194.257812 114.5 202.359375 113.957031 206.832031 119.277344 C 208.875 121.707031 209.03125 124.265625 208.78125 125.738281 C 208.621094 123.804688 207.730469 121.535156 206.128906 119.789062 C 201.671875 114.941406 194.617188 115.996094 189.207031 118.402344 Z M 176.339844 117.179688 C 174.316406 119.824219 170.441406 125.855469 165.128906 123.910156 C 157.257812 121.03125 160.394531 112.019531 164.339844 109.8125 C 167.511719 108.042969 172.183594 110.367188 172.523438 113.890625 C 172.898438 117.804688 169.785156 120.375 166.855469 119.761719 C 160.925781 118.515625 162.742188 110.054688 168.398438 111.574219 C 167.917969 110.765625 166.613281 110.671875 165.695312 110.863281 C 163.5625 111.316406 161.617188 113.855469 162.332031 116.65625 C 163.664062 121.878906 170.691406 122.492188 172.929688 117.152344 C 174.601562 113.160156 171.933594 108.992188 168.042969 108.363281 C 164.578125 107.804688 161.636719 109.042969 159.261719 112.175781 C 163.347656 100.917969 179.164062 104.019531 176.339844 117.179688 Z M 217.464844 113.214844 C 217.972656 115.230469 217.96875 117.0625 217.542969 118.726562 C 217.117188 120.390625 216.265625 121.886719 215.074219 123.242188 C 218.234375 121.203125 219.386719 116.832031 217.464844 113.214844 Z M 171.65625 109.066406 C 174.136719 110.207031 175.335938 112.964844 175.117188 115.609375 C 174.910156 118.128906 173.386719 120.507812 171.382812 121.464844 C 172.535156 120.425781 173.480469 119.078125 173.953125 117.59375 C 174.886719 114.683594 174.167969 110.984375 171.65625 109.066406 Z M 205.679688 107.792969 C 208.363281 108.230469 211.15625 109.765625 213.058594 111.957031 C 214.964844 114.148438 215.980469 116.996094 215.121094 120.0625 C 214.703125 114.054688 211.171875 110.019531 205.679688 107.792969 Z M 160.089844 119.980469 C 158.78125 117.84375 158.640625 115.308594 159.527344 113.203125 C 160.414062 111.097656 162.324219 109.417969 165.121094 108.988281 C 160.757812 110.550781 158.355469 115.449219 160.089844 119.980469 Z M 202.390625 106.433594 C 205.378906 105.8125 208.570312 106.4375 211.125 108.003906 C 213.679688 109.570312 215.601562 112.078125 216.058594 115.226562 C 214.058594 109.039062 207.703125 106.414062 202.390625 106.433594 Z M 202.390625 106.433594 " fill-opacity="1" fill-rule="evenodd"/><path fill="#f8ecdf" d="M 182.789062 208.140625 C 189.867188 219.445312 200.269531 219.632812 207.835938 219.859375 C 211 219.953125 217.371094 218.363281 216.964844 215.585938 C 216.574219 212.914062 207.546875 213.839844 202.855469 214.234375 C 196.824219 214.742188 191.648438 215.367188 182.789062 208.140625 Z M 182.789062 208.140625 " fill-opacity="1" fill-rule="evenodd"/><path fill="#f8ecdf" d="M 183.738281 168.035156 C 184.0625 172.070312 184.488281 177.011719 186.746094 180.46875 C 189.367188 184.476562 194.824219 186.527344 199.070312 188.785156 C 199.085938 188.78125 199.105469 188.777344 199.125 188.773438 C 205.628906 192.636719 212.382812 194.582031 215.09375 192.171875 C 215.664062 191.664062 215.972656 191.085938 216.125 190.472656 C 213.726562 193.761719 207.640625 191.425781 204.605469 190.128906 C 203.726562 189.757812 202.871094 189.34375 202.003906 188.941406 C 197.316406 186.769531 190.113281 183.679688 187.183594 179.242188 C 184.542969 175.238281 184.558594 169.796875 183.820312 164.925781 C 183.765625 165.875 183.734375 166.925781 183.738281 168.035156 Z M 198.136719 189.058594 L 198.117188 189.0625 L 198.082031 189.078125 C 198.101562 189.070312 198.117188 189.0625 198.136719 189.058594 Z M 198.175781 189.042969 L 198.152344 189.050781 L 198.191406 189.035156 Z M 198.238281 189.019531 L 198.214844 189.027344 Z M 198.296875 189 L 198.273438 189.007812 Z M 198.335938 188.988281 L 198.328125 188.988281 L 198.339844 188.984375 L 198.347656 188.980469 Z M 198.398438 188.964844 L 198.382812 188.972656 L 198.394531 188.96875 Z M 198.457031 188.945312 L 198.441406 188.953125 Z M 198.511719 188.929688 L 198.5 188.933594 L 198.503906 188.933594 Z M 198.5625 188.914062 L 198.554688 188.917969 L 198.558594 188.914062 Z M 198.621094 188.898438 L 198.609375 188.902344 L 198.617188 188.898438 Z M 198.679688 188.878906 L 198.667969 188.882812 L 198.671875 188.882812 Z M 198.730469 188.867188 L 198.726562 188.867188 Z M 198.789062 188.851562 L 198.78125 188.855469 L 198.785156 188.851562 Z M 198.84375 188.835938 L 198.835938 188.839844 L 198.84375 188.839844 Z M 198.902344 188.824219 L 198.898438 188.824219 Z M 199.015625 188.796875 L 199.011719 188.796875 Z M 199.046875 188.792969 L 199.035156 188.792969 Z M 199.046875 188.792969 " fill-opacity="1" fill-rule="evenodd"/><g fill="#563d37" fill-opacity="1"><g transform="translate(140.665758, 275.488394)"><g><path d="M 6.015625 -2.191406 C 6.015625 -2.746094 5.878906 -3.222656 5.609375 -3.59375 C 5.332031 -3.964844 4.960938 -4.21875 4.507812 -4.347656 C 4.777344 -4.464844 5.007812 -4.671875 5.183594 -4.984375 C 5.261719 -5.125 5.320312 -5.261719 5.367188 -5.414062 C 5.414062 -5.5625 5.4375 -5.773438 5.4375 -6.039062 C 5.4375 -6.292969 5.367188 -6.5625 5.25 -6.816406 C 4.902344 -7.523438 4.148438 -7.882812 3.003906 -7.882812 L 0.871094 -7.882812 L 0.871094 0 L 3.28125 0 C 4.082031 0 4.71875 -0.175781 5.203125 -0.542969 C 5.449219 -0.730469 5.644531 -0.972656 5.796875 -1.273438 C 5.933594 -1.566406 6.015625 -1.867188 6.015625 -2.191406 Z M 4.625 -5.910156 C 4.625 -5.484375 4.496094 -5.171875 4.242188 -4.960938 C 3.988281 -4.753906 3.652344 -4.648438 3.234375 -4.648438 L 1.679688 -4.648438 L 1.679688 -7.105469 L 3.003906 -7.105469 C 4.082031 -7.105469 4.625 -6.699219 4.625 -5.910156 Z M 5.203125 -2.351562 C 5.203125 -1.878906 5.042969 -1.496094 4.71875 -1.207031 C 4.40625 -0.914062 4 -0.777344 3.511719 -0.777344 L 1.679688 -0.777344 L 1.679688 -3.835938 L 3.640625 -3.835938 C 4.046875 -3.835938 4.40625 -3.699219 4.71875 -3.417969 C 4.855469 -3.292969 4.972656 -3.140625 5.066406 -2.96875 C 5.160156 -2.78125 5.203125 -2.585938 5.203125 -2.351562 Z M 5.203125 -2.351562 "/></g></g></g><g fill="#563d37" fill-opacity="1"><g transform="translate(148.477516, 275.488394)"><g><path d="M 5.550781 0 L 5.550781 -0.753906 L 1.679688 -0.753906 L 1.679688 -3.558594 L 5.4375 -3.558594 L 5.4375 -4.324219 L 1.679688 -4.324219 L 1.679688 -7.128906 L 5.550781 -7.128906 L 5.550781 -7.882812 L 0.871094 -7.882812 L 0.871094 0 Z M 5.550781 0 "/></g></g></g><g fill="#563d37" fill-opacity="1"><g transform="translate(156.463125, 275.488394)"><g><path d="M 2.144531 -2.898438 L 3.582031 -6.527344 L 5.007812 -2.898438 Z M 7.035156 0 L 3.582031 -8.425781 L 0.117188 0 L 0.996094 0 L 1.84375 -2.144531 L 5.308594 -2.144531 L 6.15625 0 Z M 7.035156 0 "/></g></g></g><g fill="#563d37" fill-opacity="1"><g transform="translate(165.178876, 275.488394)"><g><path d="M 6.574219 -2.609375 L 6.574219 -7.882812 L 5.761719 -7.882812 L 5.761719 -2.492188 C 5.761719 -2.167969 5.703125 -1.902344 5.585938 -1.679688 C 5.25 -1.03125 4.601562 -0.707031 3.640625 -0.707031 C 3.015625 -0.707031 2.515625 -0.847656 2.144531 -1.125 C 1.714844 -1.4375 1.507812 -1.890625 1.507812 -2.492188 L 1.507812 -7.882812 L 0.695312 -7.882812 L 0.695312 -2.609375 C 0.695312 -1.75 0.972656 -1.078125 1.53125 -0.589844 C 2.050781 -0.128906 2.757812 0.105469 3.640625 0.105469 C 4.507812 0.105469 5.203125 -0.128906 5.738281 -0.589844 C 6.292969 -1.078125 6.574219 -1.75 6.574219 -2.609375 Z M 6.574219 -2.609375 "/></g></g></g><g fill="#563d37" fill-opacity="1"><g transform="translate(174.010519, 275.488394)"><g><path d="M 0.230469 -7.152344 L 2.144531 -7.152344 L 2.144531 -0.0234375 L 2.957031 -0.0234375 L 2.957031 -7.152344 L 4.867188 -7.152344 L 4.867188 -7.90625 L 0.230469 -7.90625 Z M 0.230469 -7.152344 "/></g></g></g><g fill="#563d37" fill-opacity="1"><g transform="translate(180.674911, 275.488394)"><g><path d="M 3.917969 -3.710938 L 6.898438 -7.882812 L 5.867188 -7.882812 L 3.511719 -4.507812 L 1.160156 -7.882812 L 0.117188 -7.882812 L 3.105469 -3.699219 L 3.105469 0 L 3.917969 0 Z M 3.917969 -3.710938 "/></g></g></g><g fill="#563d37" fill-opacity="1"><g transform="translate(189.251586, 275.488394)"><g/></g></g><g fill="#563d37" fill-opacity="1"><g transform="translate(193.94575, 275.488394)"><g><path d="M 3.046875 -3.710938 C 4.070312 -3.464844 4.765625 -3.199219 5.136719 -2.898438 C 5.390625 -2.6875 5.519531 -2.421875 5.519531 -2.097656 C 5.519531 -1.773438 5.449219 -1.507812 5.308594 -1.320312 C 4.960938 -0.835938 4.335938 -0.589844 3.453125 -0.589844 C 2.226562 -0.589844 1.53125 -1.007812 1.378906 -1.84375 L 0.429688 -1.84375 C 0.707031 -0.511719 1.714844 0.152344 3.453125 0.152344 C 4.230469 0.152344 4.878906 -0.0117188 5.402344 -0.359375 C 6.027344 -0.765625 6.351562 -1.367188 6.351562 -2.15625 C 6.351562 -2.804688 6.097656 -3.304688 5.585938 -3.652344 C 5.226562 -3.90625 4.648438 -4.136719 3.847656 -4.347656 C 3.039062 -4.554688 2.515625 -4.730469 2.273438 -4.855469 C 1.738281 -5.125 1.472656 -5.496094 1.484375 -5.980469 C 1.484375 -6.238281 1.53125 -6.457031 1.644531 -6.617188 C 1.949219 -7.070312 2.480469 -7.304688 3.246094 -7.304688 C 4.324219 -7.304688 4.9375 -6.957031 5.101562 -6.28125 L 5.980469 -6.28125 C 5.691406 -7.417969 4.777344 -8 3.246094 -8 C 2.550781 -8 1.9375 -7.8125 1.425781 -7.441406 C 0.902344 -7.070312 0.636719 -6.527344 0.636719 -5.785156 C 0.636719 -4.777344 1.449219 -4.082031 3.046875 -3.710938 Z M 3.046875 -3.710938 "/></g></g></g><g fill="#563d37" fill-opacity="1"><g transform="translate(202.16315, 275.488394)"><g><path d="M 2.144531 -2.898438 L 3.582031 -6.527344 L 5.007812 -2.898438 Z M 7.035156 0 L 3.582031 -8.425781 L 0.117188 0 L 0.996094 0 L 1.84375 -2.144531 L 5.308594 -2.144531 L 6.15625 0 Z M 7.035156 0 "/></g></g></g><g fill="#563d37" fill-opacity="1"><g transform="translate(210.8789, 275.488394)"><g><path d="M 1.679688 -0.8125 L 1.679688 -7.882812 L 0.871094 -7.882812 L 0.871094 0 L 4.496094 0 L 4.496094 -0.8125 Z M 1.679688 -0.8125 "/></g></g></g><g fill="#563d37" fill-opacity="1"><g transform="translate(217.172428, 275.488394)"><g><path d="M 7.8125 -3.964844 C 7.8125 -3.058594 7.488281 -2.296875 6.863281 -1.667969 C 6.226562 -1.03125 5.460938 -0.71875 4.566406 -0.71875 C 3.675781 -0.71875 2.910156 -1.03125 2.285156 -1.667969 C 1.644531 -2.296875 1.332031 -3.058594 1.332031 -3.964844 C 1.332031 -4.84375 1.644531 -5.609375 2.285156 -6.25 C 2.910156 -6.875 3.675781 -7.199219 4.566406 -7.199219 C 5.460938 -7.199219 6.226562 -6.875 6.863281 -6.25 C 7.488281 -5.609375 7.8125 -4.84375 7.8125 -3.964844 Z M 8.625 -3.964844 C 8.625 -4.519531 8.507812 -5.042969 8.300781 -5.539062 C 8.089844 -6.027344 7.800781 -6.457031 7.429688 -6.828125 C 7.058594 -7.1875 6.628906 -7.476562 6.144531 -7.683594 C 5.644531 -7.894531 5.125 -8.011719 4.566406 -8.011719 C 4.011719 -8.011719 3.476562 -7.894531 2.992188 -7.683594 C 2.503906 -7.476562 2.074219 -7.1875 1.703125 -6.828125 C 1.332031 -6.457031 1.042969 -6.027344 0.835938 -5.539062 C 0.625 -5.042969 0.523438 -4.519531 0.523438 -3.964844 C 0.523438 -3.40625 0.625 -2.875 0.835938 -2.386719 C 1.042969 -1.890625 1.332031 -1.460938 1.703125 -1.089844 C 2.074219 -0.71875 2.503906 -0.429688 2.992188 -0.21875 C 3.476562 -0.0117188 4.011719 0.09375 4.566406 0.09375 C 5.125 0.09375 5.644531 -0.0117188 6.144531 -0.21875 C 6.628906 -0.429688 7.058594 -0.71875 7.429688 -1.089844 C 7.800781 -1.460938 8.089844 -1.890625 8.300781 -2.386719 C 8.507812 -2.875 8.625 -3.40625 8.625 -3.964844 Z M 8.625 -3.964844 "/></g></g></g><g fill="#563d37" fill-opacity="1"><g transform="translate(227.881593, 275.488394)"><g><path d="M 1.679688 -5.808594 L 6.109375 0.488281 L 6.109375 -7.882812 L 5.296875 -7.882812 L 5.296875 -2.085938 L 0.871094 -8.382812 L 0.871094 0 L 1.679688 0 Z M 1.679688 -5.808594 "/></g></g></g><g fill="#563d37" fill-opacity="1"><g transform="translate(110.263767, 259.425876)"><g><path d="M 18.515625 -4.828125 C 18.515625 -2.878906 18.585938 -1.269531 18.734375 0 C 17.296875 -0.0625 14.867188 -0.09375 11.453125 -0.09375 C 6.828125 -0.09375 3.367188 -0.0625 1.078125 0 L 1.078125 -0.640625 C 1.773438 -0.679688 2.289062 -0.765625 2.625 -0.890625 C 2.957031 -1.015625 3.179688 -1.253906 3.296875 -1.609375 C 3.410156 -1.972656 3.46875 -2.5625 3.46875 -3.375 L 3.46875 -19.15625 C 3.46875 -19.957031 3.410156 -20.535156 3.296875 -20.890625 C 3.179688 -21.253906 2.957031 -21.5 2.625 -21.625 C 2.289062 -21.757812 1.773438 -21.847656 1.078125 -21.890625 L 1.078125 -22.515625 C 3.367188 -22.453125 6.828125 -22.421875 11.453125 -22.421875 C 14.566406 -22.421875 16.78125 -22.453125 18.09375 -22.515625 C 17.945312 -20.753906 17.875 -19.1875 17.875 -17.8125 C 17.875 -16.882812 17.90625 -16.164062 17.96875 -15.65625 L 17.25 -15.65625 C 16.925781 -17.925781 16.347656 -19.515625 15.515625 -20.421875 C 14.691406 -21.335938 13.53125 -21.796875 12.03125 -21.796875 L 10.71875 -21.796875 C 10.0625 -21.796875 9.582031 -21.738281 9.28125 -21.625 C 8.988281 -21.519531 8.789062 -21.3125 8.6875 -21 C 8.582031 -20.695312 8.53125 -20.207031 8.53125 -19.53125 L 8.53125 -11.640625 L 9.546875 -11.640625 C 10.671875 -11.640625 11.523438 -12.050781 12.109375 -12.875 C 12.691406 -13.707031 13.097656 -14.695312 13.328125 -15.84375 L 14.0625 -15.84375 C 14 -14.945312 13.96875 -13.953125 13.96875 -12.859375 L 13.96875 -11.328125 C 13.96875 -10.242188 14.03125 -8.738281 14.15625 -6.8125 L 13.421875 -6.8125 C 12.972656 -9.601562 11.679688 -11 9.546875 -11 L 8.53125 -11 L 8.53125 -2.984375 C 8.53125 -2.304688 8.582031 -1.8125 8.6875 -1.5 C 8.789062 -1.195312 8.988281 -0.992188 9.28125 -0.890625 C 9.582031 -0.785156 10.0625 -0.734375 10.71875 -0.734375 L 12.28125 -0.734375 C 13.78125 -0.734375 14.992188 -1.242188 15.921875 -2.265625 C 16.847656 -3.296875 17.5 -5.039062 17.875 -7.5 L 18.609375 -7.5 C 18.546875 -6.800781 18.515625 -5.910156 18.515625 -4.828125 Z M 18.515625 -4.828125 "/></g></g></g><g fill="#563d37" fill-opacity="1"><g transform="translate(130.42797, 259.425876)"><g><path d="M 11.109375 -21.890625 C 10.335938 -21.847656 9.773438 -21.757812 9.421875 -21.625 C 9.078125 -21.5 8.84375 -21.253906 8.71875 -20.890625 C 8.59375 -20.535156 8.53125 -19.957031 8.53125 -19.15625 L 8.53125 -2.984375 C 8.53125 -2.304688 8.582031 -1.8125 8.6875 -1.5 C 8.789062 -1.195312 8.972656 -0.992188 9.234375 -0.890625 C 9.503906 -0.785156 9.9375 -0.734375 10.53125 -0.734375 L 12.09375 -0.734375 C 13.53125 -0.734375 14.773438 -1.378906 15.828125 -2.671875 C 16.878906 -3.960938 17.5625 -5.679688 17.875 -7.828125 L 18.609375 -7.828125 C 18.546875 -7.109375 18.515625 -6.175781 18.515625 -5.03125 C 18.515625 -2.988281 18.585938 -1.3125 18.734375 0 C 17.296875 -0.0625 14.867188 -0.09375 11.453125 -0.09375 C 6.828125 -0.09375 3.367188 -0.0625 1.078125 0 L 1.078125 -0.640625 C 1.773438 -0.679688 2.289062 -0.765625 2.625 -0.890625 C 2.957031 -1.015625 3.179688 -1.253906 3.296875 -1.609375 C 3.410156 -1.972656 3.46875 -2.5625 3.46875 -3.375 L 3.46875 -19.15625 C 3.46875 -19.957031 3.410156 -20.535156 3.296875 -20.890625 C 3.179688 -21.253906 2.957031 -21.5 2.625 -21.625 C 2.289062 -21.757812 1.773438 -21.847656 1.078125 -21.890625 L 1.078125 -22.515625 C 2.160156 -22.453125 3.835938 -22.421875 6.109375 -22.421875 C 8.273438 -22.421875 9.941406 -22.453125 11.109375 -22.515625 Z M 11.109375 -21.890625 "/></g></g></g><g fill="#563d37" fill-opacity="1"><g transform="translate(149.860666, 259.425876)"><g/></g></g><g fill="#563d37" fill-opacity="1"><g transform="translate(157.271172, 259.425876)"><g><path d="M 17.203125 -22.453125 C 18.179688 -22.453125 18.988281 -22.488281 19.625 -22.5625 L 19.625 -21.921875 C 18.65625 -21.515625 17.640625 -20.285156 16.578125 -18.234375 L 12.828125 -10.78125 L 12.828125 -3.375 C 12.828125 -2.5625 12.882812 -1.972656 13 -1.609375 C 13.113281 -1.253906 13.328125 -1.015625 13.640625 -0.890625 C 13.960938 -0.765625 14.484375 -0.679688 15.203125 -0.640625 L 15.203125 0 C 14.054688 -0.0625 12.425781 -0.09375 10.3125 -0.09375 C 8.039062 -0.09375 6.394531 -0.0625 5.375 0 L 5.375 -0.640625 C 6.070312 -0.679688 6.582031 -0.765625 6.90625 -0.890625 C 7.238281 -1.015625 7.460938 -1.253906 7.578125 -1.609375 C 7.703125 -1.972656 7.765625 -2.5625 7.765625 -3.375 L 7.765625 -8.75 L 1.625 -20.109375 C 0.96875 -21.296875 0.351562 -21.890625 -0.21875 -21.890625 L -0.21875 -22.5625 C 0.707031 -22.445312 1.957031 -22.390625 3.53125 -22.390625 C 5.5 -22.390625 7.492188 -22.445312 9.515625 -22.5625 L 9.515625 -21.890625 C 8.773438 -21.890625 8.1875 -21.816406 7.75 -21.671875 C 7.3125 -21.535156 7.09375 -21.289062 7.09375 -20.9375 C 7.09375 -20.738281 7.164062 -20.503906 7.3125 -20.234375 L 12.15625 -10.90625 L 14.640625 -15.875 C 15.460938 -17.550781 15.875 -18.863281 15.875 -19.8125 C 15.875 -20.539062 15.644531 -21.0625 15.1875 -21.375 C 14.726562 -21.695312 14.078125 -21.878906 13.234375 -21.921875 L 13.234375 -22.5625 C 14.671875 -22.488281 15.992188 -22.453125 17.203125 -22.453125 Z M 17.203125 -22.453125 "/></g></g></g><g fill="#563d37" fill-opacity="1"><g transform="translate(177.085529, 259.425876)"><g/></g></g><g fill="#563d37" fill-opacity="1"><g transform="translate(184.496036, 259.425876)"><g><path d="M 18.515625 -4.828125 C 18.515625 -2.878906 18.585938 -1.269531 18.734375 0 C 17.296875 -0.0625 14.867188 -0.09375 11.453125 -0.09375 C 6.828125 -0.09375 3.367188 -0.0625 1.078125 0 L 1.078125 -0.640625 C 1.773438 -0.679688 2.289062 -0.765625 2.625 -0.890625 C 2.957031 -1.015625 3.179688 -1.253906 3.296875 -1.609375 C 3.410156 -1.972656 3.46875 -2.5625 3.46875 -3.375 L 3.46875 -19.15625 C 3.46875 -19.957031 3.410156 -20.535156 3.296875 -20.890625 C 3.179688 -21.253906 2.957031 -21.5 2.625 -21.625 C 2.289062 -21.757812 1.773438 -21.847656 1.078125 -21.890625 L 1.078125 -22.515625 C 3.367188 -22.453125 6.828125 -22.421875 11.453125 -22.421875 C 14.566406 -22.421875 16.78125 -22.453125 18.09375 -22.515625 C 17.945312 -20.753906 17.875 -19.1875 17.875 -17.8125 C 17.875 -16.882812 17.90625 -16.164062 17.96875 -15.65625 L 17.25 -15.65625 C 16.925781 -17.925781 16.347656 -19.515625 15.515625 -20.421875 C 14.691406 -21.335938 13.53125 -21.796875 12.03125 -21.796875 L 10.71875 -21.796875 C 10.0625 -21.796875 9.582031 -21.738281 9.28125 -21.625 C 8.988281 -21.519531 8.789062 -21.3125 8.6875 -21 C 8.582031 -20.695312 8.53125 -20.207031 8.53125 -19.53125 L 8.53125 -11.640625 L 9.546875 -11.640625 C 10.671875 -11.640625 11.523438 -12.050781 12.109375 -12.875 C 12.691406 -13.707031 13.097656 -14.695312 13.328125 -15.84375 L 14.0625 -15.84375 C 14 -14.945312 13.96875 -13.953125 13.96875 -12.859375 L 13.96875 -11.328125 C 13.96875 -10.242188 14.03125 -8.738281 14.15625 -6.8125 L 13.421875 -6.8125 C 12.972656 -9.601562 11.679688 -11 9.546875 -11 L 8.53125 -11 L 8.53125 -2.984375 C 8.53125 -2.304688 8.582031 -1.8125 8.6875 -1.5 C 8.789062 -1.195312 8.988281 -0.992188 9.28125 -0.890625 C 9.582031 -0.785156 10.0625 -0.734375 10.71875 -0.734375 L 12.28125 -0.734375 C 13.78125 -0.734375 14.992188 -1.242188 15.921875 -2.265625 C 16.847656 -3.296875 17.5 -5.039062 17.875 -7.5 L 18.609375 -7.5 C 18.546875 -6.800781 18.515625 -5.910156 18.515625 -4.828125 Z M 18.515625 -4.828125 "/></g></g></g><g fill="#563d37" fill-opacity="1"><g transform="translate(204.660238, 259.425876)"><g><path d="M 11.109375 -21.890625 C 10.335938 -21.847656 9.773438 -21.757812 9.421875 -21.625 C 9.078125 -21.5 8.84375 -21.253906 8.71875 -20.890625 C 8.59375 -20.535156 8.53125 -19.957031 8.53125 -19.15625 L 8.53125 -2.984375 C 8.53125 -2.304688 8.582031 -1.8125 8.6875 -1.5 C 8.789062 -1.195312 8.972656 -0.992188 9.234375 -0.890625 C 9.503906 -0.785156 9.9375 -0.734375 10.53125 -0.734375 L 12.09375 -0.734375 C 13.53125 -0.734375 14.773438 -1.378906 15.828125 -2.671875 C 16.878906 -3.960938 17.5625 -5.679688 17.875 -7.828125 L 18.609375 -7.828125 C 18.546875 -7.109375 18.515625 -6.175781 18.515625 -5.03125 C 18.515625 -2.988281 18.585938 -1.3125 18.734375 0 C 17.296875 -0.0625 14.867188 -0.09375 11.453125 -0.09375 C 6.828125 -0.09375 3.367188 -0.0625 1.078125 0 L 1.078125 -0.640625 C 1.773438 -0.679688 2.289062 -0.765625 2.625 -0.890625 C 2.957031 -1.015625 3.179688 -1.253906 3.296875 -1.609375 C 3.410156 -1.972656 3.46875 -2.5625 3.46875 -3.375 L 3.46875 -19.15625 C 3.46875 -19.957031 3.410156 -20.535156 3.296875 -20.890625 C 3.179688 -21.253906 2.957031 -21.5 2.625 -21.625 C 2.289062 -21.757812 1.773438 -21.847656 1.078125 -21.890625 L 1.078125 -22.515625 C 2.160156 -22.453125 3.835938 -22.421875 6.109375 -22.421875 C 8.273438 -22.421875 9.941406 -22.453125 11.109375 -22.515625 Z M 11.109375 -21.890625 "/></g></g></g><g fill="#563d37" fill-opacity="1"><g transform="translate(224.092934, 259.425876)"><g><path d="M 11.109375 -21.890625 C 10.335938 -21.847656 9.773438 -21.757812 9.421875 -21.625 C 9.078125 -21.5 8.84375 -21.253906 8.71875 -20.890625 C 8.59375 -20.535156 8.53125 -19.957031 8.53125 -19.15625 L 8.53125 -2.984375 C 8.53125 -2.304688 8.582031 -1.8125 8.6875 -1.5 C 8.789062 -1.195312 8.972656 -0.992188 9.234375 -0.890625 C 9.503906 -0.785156 9.9375 -0.734375 10.53125 -0.734375 L 12.09375 -0.734375 C 13.53125 -0.734375 14.773438 -1.378906 15.828125 -2.671875 C 16.878906 -3.960938 17.5625 -5.679688 17.875 -7.828125 L 18.609375 -7.828125 C 18.546875 -7.109375 18.515625 -6.175781 18.515625 -5.03125 C 18.515625 -2.988281 18.585938 -1.3125 18.734375 0 C 17.296875 -0.0625 14.867188 -0.09375 11.453125 -0.09375 C 6.828125 -0.09375 3.367188 -0.0625 1.078125 0 L 1.078125 -0.640625 C 1.773438 -0.679688 2.289062 -0.765625 2.625 -0.890625 C 2.957031 -1.015625 3.179688 -1.253906 3.296875 -1.609375 C 3.410156 -1.972656 3.46875 -2.5625 3.46875 -3.375 L 3.46875 -19.15625 C 3.46875 -19.957031 3.410156 -20.535156 3.296875 -20.890625 C 3.179688 -21.253906 2.957031 -21.5 2.625 -21.625 C 2.289062 -21.757812 1.773438 -21.847656 1.078125 -21.890625 L 1.078125 -22.515625 C 2.160156 -22.453125 3.835938 -22.421875 6.109375 -22.421875 C 8.273438 -22.421875 9.941406 -22.453125 11.109375 -22.515625 Z M 11.109375 -21.890625 "/></g></g></g><g fill="#563d37" fill-opacity="1"><g transform="translate(243.52563, 259.425876)"><g><path d="M 19.4375 -2.671875 C 19.707031 -1.972656 20.023438 -1.460938 20.390625 -1.140625 C 20.753906 -0.828125 21.101562 -0.660156 21.4375 -0.640625 L 21.4375 0 C 20.164062 -0.0625 18.554688 -0.09375 16.609375 -0.09375 C 14.441406 -0.09375 12.828125 -0.0625 11.765625 0 L 11.765625 -0.640625 C 12.578125 -0.679688 13.148438 -0.78125 13.484375 -0.9375 C 13.828125 -1.09375 14 -1.375 14 -1.78125 C 14 -2.164062 13.867188 -2.675781 13.609375 -3.3125 L 11.703125 -8.53125 L 4.765625 -8.53125 L 3.9375 -6.328125 C 3.34375 -4.804688 3.046875 -3.628906 3.046875 -2.796875 C 3.046875 -2.015625 3.285156 -1.46875 3.765625 -1.15625 C 4.242188 -0.851562 4.953125 -0.679688 5.890625 -0.640625 L 5.890625 0 C 4.441406 -0.0625 3.125 -0.09375 1.9375 -0.09375 C 0.96875 -0.09375 0.160156 -0.0625 -0.484375 0 L -0.484375 -0.640625 C 0.554688 -0.828125 1.472656 -1.9375 2.265625 -3.96875 L 9.515625 -22.59375 C 9.742188 -22.570312 10.113281 -22.5625 10.625 -22.5625 C 11.132812 -22.5625 11.492188 -22.570312 11.703125 -22.59375 Z M 11.484375 -9.15625 L 8.328125 -17.75 L 5.03125 -9.15625 Z M 11.484375 -9.15625 "/></g></g></g></svg>