<svg xmlns="http://www.w3.org/2000/svg" xmlns:xlink="http://www.w3.org/1999/xlink" width="500" zoomAndPan="magnify" viewBox="0 0 375 374.999991" height="500" preserveAspectRatio="xMidYMid meet" version="1.0"><defs><g/><clipPath id="0f44fed44e"><path d="M 71.925781 55.183594 L 268.214844 55.183594 L 268.214844 242.527344 L 71.925781 242.527344 Z M 71.925781 55.183594 " clip-rule="nonzero"/></clipPath><clipPath id="7568262f21"><path d="M 252 48.445312 L 302.917969 48.445312 L 302.917969 139.726562 L 252 139.726562 Z M 252 48.445312 " clip-rule="nonzero"/></clipPath></defs><g clip-path="url(#0f44fed44e)"><path fill="#d89d42" d="M 183.191406 242.570312 C 174.746094 242.570312 165.921875 239.296875 156.238281 232.574219 C 147.964844 226.832031 140.609375 219.65625 133.894531 212.757812 C 116.480469 194.871094 100.53125 159.132812 95.703125 145.023438 C 94.003906 145.945312 91.992188 146.011719 89.988281 145.199219 C 87.039062 144.007812 84.21875 141.050781 81.601562 136.414062 C 78.4375 130.8125 75.660156 122.859375 73.34375 112.777344 C 69.660156 96.757812 74.074219 93.359375 76.144531 92.644531 C 78.007812 92 80.285156 92.566406 82.558594 94.253906 C 84.808594 95.914062 86.855469 98.535156 88.324219 101.628906 C 89.203125 103.679688 90.367188 104.570312 91.015625 104.371094 C 91.90625 104.105469 92.582031 101.84375 91.566406 96.359375 C 91.109375 93.878906 91.160156 92.382812 91.734375 91.652344 C 91.984375 91.335938 92.320312 91.164062 92.734375 91.136719 C 93.765625 91.074219 94.828125 92.136719 96.433594 93.746094 C 99.671875 96.984375 104.566406 101.882812 113.339844 101.789062 L 114.9375 101.769531 L 113.515625 102.5 C 113.480469 102.519531 110.90625 103.859375 108.949219 105.660156 C 110.976562 104.199219 112.984375 103.367188 115.316406 103.53125 L 116.523438 103.613281 L 115.484375 104.230469 C 115.371094 104.300781 115.25 104.371094 115.125 104.445312 C 113.632812 105.324219 111.847656 106.371094 111.117188 108.226562 C 112.867188 106.199219 115.3125 104.910156 117.507812 104.96875 L 119.027344 105.007812 L 117.667969 105.683594 C 116.285156 106.375 115.265625 107.890625 114.867188 109.304688 C 116.652344 106.835938 119.441406 105.464844 121.609375 105.355469 L 124.042969 105.234375 L 121.765625 106.089844 C 120.363281 106.613281 119.386719 108.394531 119.070312 110.175781 C 120.519531 107.871094 121.9375 106.441406 124.910156 106.035156 L 126.699219 105.792969 L 125.160156 106.734375 C 124.378906 107.210938 123.4375 108.902344 122.996094 110.519531 C 124.195312 108.476562 125.960938 106.882812 127.777344 106.304688 L 129.121094 105.878906 L 128.171875 106.921875 C 127.644531 107.5 127.128906 108.859375 126.890625 110.167969 C 127.75 108.289062 129.15625 106.574219 131.113281 106.199219 L 132.410156 105.949219 L 131.441406 106.847656 C 130.449219 107.765625 130.003906 109.523438 130.261719 111.175781 C 131.371094 108.566406 132.34375 106.550781 134.277344 106.011719 L 135.195312 105.757812 L 134.699219 106.574219 C 133.917969 107.863281 133.191406 109.644531 133.738281 111.285156 C 134.507812 108.523438 135.609375 105.863281 137.65625 105.242188 L 138.765625 104.902344 L 138.070312 105.832031 C 137.015625 107.234375 136.90625 108.152344 137.304688 108.996094 C 137.769531 106.554688 138.894531 105.214844 141.027344 104.472656 L 142.09375 104.101562 L 141.46875 105.039062 C 140.96875 105.792969 140.839844 106.886719 141.089844 108.042969 C 141.097656 108.019531 141.105469 107.996094 141.117188 107.972656 C 141.742188 106.179688 142.457031 104.148438 144.957031 103.683594 L 145.75 103.539062 L 145.359375 104.242188 C 144.734375 105.367188 144.277344 106.320312 144.386719 107.460938 C 144.398438 107.429688 144.40625 107.402344 144.414062 107.375 C 145.152344 104.972656 145.558594 103.648438 148.925781 103.007812 L 150.382812 102.730469 L 149.238281 103.671875 C 148.421875 104.339844 148.058594 105 147.925781 105.792969 C 149.253906 104.144531 151.390625 102.839844 153.703125 102.332031 C 155.652344 101.902344 157.496094 102.082031 159.015625 102.835938 C 157.320312 99.316406 154.726562 97.277344 150.933594 96.457031 C 147.066406 95.625 142.367188 96.074219 136.929688 96.59375 C 125.429688 97.691406 111.125 99.058594 97.019531 88.453125 L 95.957031 87.65625 L 97.285156 87.773438 C 102.746094 88.269531 112.6875 84.863281 119.539062 81.792969 C 125.152344 79.28125 130.816406 78.085938 136.375 78.234375 C 141.425781 78.371094 146.21875 79.65625 150.242188 81.953125 C 156.035156 85.257812 159.832031 90.398438 160.773438 96.15625 C 161.816406 94.609375 162.777344 91.871094 162.882812 88.535156 C 162.980469 85.4375 162.367188 80.832031 158.902344 76.5 C 153.460938 69.695312 144.425781 65.210938 134.117188 64.195312 C 128.042969 63.597656 121.59375 64.183594 114.941406 65.929688 C 107.503906 67.886719 99.820312 71.308594 92.105469 76.097656 L 91.371094 76.554688 L 91.53125 75.707031 C 92.691406 69.566406 97.054688 64.648438 104.507812 61.101562 C 110.410156 58.285156 118.226562 56.445312 126.511719 55.914062 C 137.257812 55.222656 147.207031 56.71875 155.285156 60.246094 C 162.6875 63.476562 168.261719 68.355469 170.984375 73.984375 C 174.988281 82.261719 175.105469 102.132812 175.167969 112.8125 C 175.175781 113.953125 175.183594 114.996094 175.191406 115.914062 C 175.378906 132.628906 170.132812 141.339844 166.996094 146.546875 C 166.726562 146.996094 166.472656 147.421875 166.234375 147.824219 C 163.59375 152.335938 163.558594 156.300781 166.148438 158.429688 C 168.101562 160.03125 169.183594 159.265625 170.4375 158.378906 C 171.367188 157.71875 172.421875 156.976562 173.796875 157.507812 C 174.707031 157.855469 175.539062 158.457031 176.414062 159.097656 C 178.871094 160.886719 181.191406 162.574219 185.300781 158.953125 C 186.878906 157.5625 188.121094 156.980469 189.328125 157.054688 C 190.972656 157.164062 192.453125 158.492188 194.171875 160.457031 L 194.617188 160.964844 L 193.953125 161.078125 C 188.988281 161.929688 185.542969 164.074219 183.707031 167.453125 C 181.492188 171.523438 182.191406 176.40625 183.460938 179.351562 L 182.765625 179.648438 C 181.425781 176.550781 180.695312 171.402344 183.039062 167.09375 C 184.90625 163.65625 188.308594 161.421875 193.15625 160.457031 C 191.511719 158.65625 190.367188 157.882812 189.277344 157.8125 C 188.285156 157.75 187.214844 158.273438 185.800781 159.519531 C 181.234375 163.542969 178.4375 161.507812 175.964844 159.707031 C 175.132812 159.101562 174.34375 158.527344 173.523438 158.210938 C 172.527344 157.828125 171.765625 158.367188 170.875 158.996094 C 169.625 159.882812 168.0625 160.984375 165.664062 159.011719 C 162.765625 156.628906 162.734375 152.300781 165.582031 147.441406 C 165.820312 147.035156 166.074219 146.609375 166.347656 146.15625 C 169.441406 141.019531 174.617188 132.421875 174.433594 115.921875 C 174.425781 115.003906 174.417969 113.960938 174.410156 112.816406 C 174.347656 102.199219 174.230469 82.433594 170.300781 74.3125 C 167.660156 68.84375 162.21875 64.097656 154.980469 60.9375 C 147.015625 57.460938 137.1875 55.984375 126.5625 56.667969 C 118.371094 57.195312 110.652344 59.011719 104.832031 61.78125 C 97.96875 65.054688 93.808594 69.496094 92.460938 74.992188 C 99.988281 70.402344 107.480469 67.109375 114.75 65.199219 C 121.488281 63.425781 128.027344 62.835938 134.191406 63.441406 C 144.703125 64.476562 153.925781 69.0625 159.496094 76.027344 C 163.105469 80.539062 163.742188 85.332031 163.640625 88.558594 C 163.527344 92.160156 162.414062 95.613281 160.800781 97.351562 L 160.238281 97.960938 L 160.144531 97.136719 C 159.492188 91.261719 155.742188 85.964844 149.867188 82.613281 C 145.949219 80.378906 141.277344 79.125 136.355469 78.992188 C 130.910156 78.839844 125.355469 80.019531 119.851562 82.484375 C 117.480469 83.546875 105.855469 88.574219 98.480469 88.582031 C 112.023438 98.214844 125.761719 96.902344 136.859375 95.839844 C 147.75 94.796875 156.355469 93.976562 160.199219 103.65625 L 160.707031 104.929688 L 159.617188 104.09375 C 158.121094 102.949219 156.078125 102.585938 153.863281 103.070312 C 151.242188 103.648438 148.871094 105.3125 147.828125 107.3125 L 147.171875 108.566406 L 147.113281 107.152344 C 147.0625 105.960938 147.183594 104.972656 147.835938 104.058594 C 146.046875 104.640625 145.753906 105.597656 145.140625 107.597656 C 145.015625 107.996094 144.878906 108.449219 144.714844 108.9375 L 144.390625 109.902344 L 144.003906 108.960938 C 143.308594 107.269531 143.636719 105.972656 144.269531 104.679688 C 142.855469 105.304688 142.355469 106.726562 141.828125 108.222656 C 141.699219 108.597656 141.5625 108.988281 141.410156 109.363281 L 141.054688 110.230469 L 140.707031 109.363281 C 140.160156 108.011719 140.0625 106.664062 140.394531 105.570312 C 138.890625 106.371094 138.171875 107.714844 137.910156 110.074219 L 137.8125 110.976562 L 137.238281 110.269531 C 136.3125 109.125 136.09375 108.058594 136.605469 106.824219 C 135.449219 108.089844 134.730469 110.40625 134.210938 112.453125 L 134 113.28125 L 133.53125 112.566406 C 132.363281 110.808594 132.742188 108.84375 133.480469 107.257812 C 132.371094 108.128906 131.640625 109.859375 130.707031 112.074219 L 130.152344 113.386719 L 129.820312 112.484375 C 129.199219 110.789062 129.339844 108.816406 130.097656 107.394531 C 128.476562 108.359375 127.335938 110.546875 126.863281 112.59375 L 126.519531 114.078125 L 126.128906 112.605469 C 125.769531 111.261719 126.238281 108.988281 126.933594 107.503906 C 125.164062 108.503906 123.570312 110.507812 122.765625 112.816406 L 122.253906 114.273438 L 122.03125 112.75 C 121.796875 111.179688 122.683594 108.546875 123.800781 107.042969 C 121.441406 107.734375 120.359375 109.414062 118.914062 111.914062 L 118.273438 113.023438 L 118.207031 111.742188 C 118.117188 109.949219 118.765625 107.769531 119.996094 106.429688 C 117.988281 107.074219 115.824219 108.679688 114.667969 111.113281 L 114.113281 112.296875 L 113.949219 110.996094 C 113.765625 109.464844 114.578125 107.277344 116.082031 105.882812 C 114.0625 106.371094 111.996094 107.9375 110.726562 110.054688 L 109.964844 111.320312 L 110.019531 109.84375 C 110.132812 106.980469 112.082031 105.421875 113.859375 104.324219 C 111.433594 104.625 109.285156 106.15625 106.914062 108.332031 L 105.679688 109.464844 L 106.304688 107.914062 C 107.226562 105.632812 110.242188 103.550781 111.957031 102.519531 C 103.710938 102.101562 98.859375 97.246094 95.902344 94.28125 C 94.542969 92.921875 93.472656 91.851562 92.777344 91.890625 C 92.582031 91.90625 92.445312 91.972656 92.332031 92.117188 C 92.042969 92.484375 91.804688 93.496094 92.3125 96.21875 C 93.265625 101.367188 92.875 104.601562 91.234375 105.097656 C 90.046875 105.457031 88.59375 104.1875 87.632812 101.9375 C 84.78125 95.9375 79.84375 92.164062 76.390625 93.359375 C 72.488281 94.714844 71.625 101.910156 74.082031 112.609375 C 76.476562 123.042969 81.769531 141.054688 90.273438 144.496094 C 92.207031 145.28125 94.136719 145.15625 95.703125 144.140625 L 96.113281 143.875 L 96.269531 144.339844 C 100.894531 158.074219 116.925781 194.246094 134.4375 212.230469 C 141.128906 219.101562 148.453125 226.246094 156.671875 231.957031 C 166.460938 238.75 175.339844 241.976562 183.808594 241.808594 C 192.667969 241.636719 201.546875 238.007812 210.957031 230.714844 C 219.03125 224.460938 226.144531 216.519531 231.855469 210.136719 L 232.160156 209.800781 C 239.113281 202.078125 246.140625 192.140625 252.484375 181.050781 C 258.25 170.980469 263.347656 160.195312 267.234375 149.839844 C 266.496094 148.988281 263.21875 145.105469 260.164062 139.796875 C 256.972656 134.25 253.367188 125.957031 254.351562 117.984375 L 255.101562 118.074219 C 254.144531 125.839844 257.679688 133.960938 260.8125 139.40625 C 264.226562 145.335938 267.914062 149.464844 267.953125 149.507812 L 268.105469 149.675781 L 268.023438 149.890625 C 264.113281 160.347656 258.96875 171.253906 253.144531 181.429688 C 246.773438 192.558594 239.710938 202.542969 232.722656 210.304688 L 232.421875 210.640625 C 226.6875 217.046875 219.550781 225.019531 211.421875 231.3125 C 201.878906 238.707031 192.847656 242.390625 183.824219 242.5625 C 183.613281 242.570312 183.402344 242.570312 183.191406 242.570312 " fill-opacity="1" fill-rule="nonzero"/></g><path fill="#d89d42" d="M 169.917969 191.855469 L 170.09375 191.679688 L 170.300781 191.816406 C 176.222656 195.738281 182.742188 196.957031 187.742188 195.082031 C 191.355469 193.726562 194.226562 192.832031 198.210938 193.714844 C 200.660156 194.257812 206.890625 194.917969 211.019531 192.847656 C 209.347656 193.355469 207.542969 193.523438 205.914062 193.523438 C 205.363281 193.523438 204.835938 193.503906 204.332031 193.472656 C 200.894531 193.261719 197.027344 192.351562 194.242188 191.09375 C 190.933594 189.601562 187.730469 188.9375 184.808594 188.761719 C 184.597656 189.695312 184.171875 190.484375 183.453125 190.980469 C 179.339844 193.828125 174.464844 192.941406 171.273438 191.167969 L 170.753906 190.878906 L 171.296875 190.628906 C 173.109375 189.792969 178.039062 187.871094 184.320312 188.128906 C 184.757812 185 183.066406 180.273438 182.765625 179.46875 C 181.371094 179.574219 179.941406 178.894531 178.433594 178.175781 C 176.5 177.253906 174.503906 176.300781 172.273438 176.820312 C 169.457031 177.480469 166.066406 180.410156 164.734375 181.636719 C 161.921875 184.242188 153.351562 191.675781 150.652344 192.585938 L 150.023438 192.792969 C 151.777344 193.195312 155.6875 193.722656 159.59375 193.8125 C 164.859375 193.9375 168.527344 193.242188 169.917969 191.855469 " fill-opacity="1" fill-rule="nonzero"/><path fill="#d89d42" d="M 172.121094 190.925781 C 175.140625 192.410156 179.449219 193.011719 183.105469 190.484375 C 183.671875 190.09375 184.015625 189.476562 184.207031 188.730469 C 178.667969 188.519531 174.21875 190.035156 172.121094 190.925781 " fill-opacity="1" fill-rule="nonzero"/><path fill="#d89d42" d="M 184.914062 188.160156 C 187.882812 188.347656 191.132812 189.03125 194.492188 190.542969 C 199.738281 192.90625 209.253906 194.269531 213.769531 190.816406 C 213.523438 190.8125 213.574219 190.855469 213.140625 190.789062 C 211.25 190.523438 208.828125 188.136719 206.027344 185.382812 C 201.910156 181.328125 196.796875 176.296875 191.164062 176.296875 C 191.09375 176.296875 191.019531 176.296875 190.945312 176.300781 C 188.828125 176.351562 187.386719 177.257812 186.113281 178.0625 C 185.226562 178.625 184.382812 179.15625 183.378906 179.378906 C 183.792969 180.496094 185.339844 184.957031 184.914062 188.160156 " fill-opacity="1" fill-rule="nonzero"/><path fill="#d89d42" d="M 213.703125 191.609375 C 211.964844 193.519531 209.113281 194.597656 205.226562 194.824219 C 202.207031 195 199.3125 194.582031 198.078125 194.308594 C 194.257812 193.460938 191.472656 194.328125 187.953125 195.648438 C 186.34375 196.253906 184.582031 196.550781 182.742188 196.550781 C 178.71875 196.550781 174.300781 195.140625 170.164062 192.453125 C 166.449219 195.679688 153.453125 194.222656 149.824219 193.371094 C 150.027344 193.613281 150.292969 193.914062 150.5 194.109375 C 152.496094 196.019531 157.164062 200.492188 163.292969 204.472656 C 170.726562 209.296875 177.738281 211.742188 184.148438 211.742188 C 184.359375 211.742188 184.570312 211.738281 184.777344 211.730469 C 193.367188 211.515625 200.648438 206.257812 205.246094 201.878906 C 209.363281 197.960938 212.566406 193.34375 213.714844 191.601562 C 213.710938 191.601562 213.707031 191.605469 213.703125 191.609375 " fill-opacity="1" fill-rule="nonzero"/><path fill="#d89d42" d="M 239.242188 97.597656 L 239.511719 98.304688 C 231.195312 101.433594 223.054688 107.671875 218.265625 114.585938 L 217.644531 114.152344 C 222.511719 107.121094 230.789062 100.777344 239.242188 97.597656 Z M 227.542969 124.625 L 226.820312 124.402344 C 228.847656 117.820312 234.03125 107.453125 239.195312 101.496094 L 239.769531 101.992188 C 234.667969 107.871094 229.546875 118.117188 227.542969 124.625 Z M 211.324219 110.722656 C 211.492188 112.546875 213.277344 117.445312 216.203125 121.917969 C 218.75 125.8125 222.914062 130.574219 228.285156 131.144531 C 232.15625 131.554688 235.445312 127.390625 237.523438 123.820312 C 239.960938 119.632812 241.8125 114.402344 242.5625 111.082031 C 243.511719 106.878906 244.273438 100.8125 243.578125 96.398438 C 243.160156 93.746094 242.265625 93.773438 239.871094 93.839844 C 239.480469 93.851562 239.035156 93.863281 238.558594 93.863281 C 237.859375 93.863281 235.101562 94.039062 231.40625 94.5 C 226.46875 96.167969 221.621094 97.945312 217.972656 100.167969 C 213.054688 103.160156 210.945312 106.515625 211.324219 110.722656 " fill-opacity="1" fill-rule="nonzero"/><path fill="#d89d42" d="M 282.5625 114.152344 L 281.9375 114.585938 C 277.152344 107.671875 269.015625 101.433594 260.695312 98.304688 L 260.964844 97.597656 C 269.417969 100.777344 277.691406 107.121094 282.5625 114.152344 Z M 272.660156 124.625 C 270.65625 118.117188 265.535156 107.871094 260.4375 101.992188 L 261.007812 101.496094 C 266.175781 107.453125 271.359375 117.820312 273.386719 124.402344 Z M 260.371094 93.839844 C 260.023438 93.828125 259.707031 93.820312 259.417969 93.820312 C 257.726562 93.820312 257.019531 94.128906 256.664062 96.398438 C 255.96875 100.8125 256.734375 106.875 257.683594 111.082031 C 258.433594 114.402344 260.28125 119.632812 262.722656 123.820312 C 264.800781 127.390625 268.085938 131.554688 271.957031 131.144531 C 277.332031 130.574219 281.496094 125.8125 284.042969 121.917969 C 286.96875 117.445312 288.753906 112.546875 288.917969 110.722656 C 289.300781 106.515625 287.1875 103.160156 282.269531 100.167969 C 278.621094 97.945312 273.773438 96.167969 268.835938 94.5 C 265.140625 94.039062 262.382812 93.863281 261.683594 93.863281 C 261.210938 93.863281 260.765625 93.851562 260.371094 93.839844 " fill-opacity="1" fill-rule="nonzero"/><path fill="#d89d42" d="M 250.203125 89.089844 C 249.738281 89.089844 249.304688 88.921875 248.945312 88.636719 C 247.707031 93.167969 247.074219 101.691406 247.335938 110.464844 C 247.597656 119.21875 248.65625 126.039062 250.121094 128.5 C 251.265625 126.578125 252.164062 121.996094 252.628906 115.910156 C 252.703125 115.113281 252.851562 112.320312 252.90625 110.464844 C 253.167969 101.753906 252.546875 93.292969 251.324219 88.738281 C 250.996094 88.960938 250.613281 89.089844 250.203125 89.089844 " fill-opacity="1" fill-rule="nonzero"/><path fill="#d89d42" d="M 239.648438 82.808594 L 239.105469 83.335938 C 230.867188 74.964844 220.71875 68.199219 214.949219 65.84375 L 215.238281 65.144531 C 219.796875 67.003906 224.753906 70.371094 228.109375 72.867188 C 232.269531 75.960938 236.476562 79.582031 239.648438 82.808594 Z M 239.339844 86.597656 C 228.480469 82.113281 218.246094 82.304688 214.355469 82.597656 C 214.164062 82.613281 214.082031 82.621094 214.03125 82.621094 L 214.03125 81.859375 C 214.070312 81.859375 214.160156 81.855469 214.296875 81.84375 C 218.246094 81.546875 228.617188 81.351562 239.628906 85.902344 Z M 224.886719 63.234375 C 216.878906 57.078125 212.234375 56.324219 210.449219 56.324219 C 210.382812 56.324219 210.316406 56.324219 210.257812 56.328125 C 209.023438 56.367188 208.140625 56.761719 207.691406 57.464844 C 206.4375 59.445312 207.753906 61.707031 209.277344 64.324219 C 210.027344 65.613281 210.800781 66.945312 211.304688 68.332031 C 213.449219 74.238281 211.914062 77.058594 210.429688 79.785156 C 210.007812 80.558594 209.574219 81.355469 209.238281 82.210938 C 208.292969 84.605469 208.429688 86.511719 209.636719 87.878906 C 211.824219 90.351562 217.632812 91.269531 226.429688 90.527344 C 233.175781 89.960938 240.523438 88.515625 245.324219 87.308594 C 244.855469 86.289062 243.503906 83.429688 241.453125 79.703125 C 235.800781 72.902344 230.171875 67.300781 224.886719 63.234375 " fill-opacity="1" fill-rule="nonzero"/><path fill="#d89d42" d="M 272.09375 72.867188 C 275.453125 70.371094 280.40625 67.003906 284.96875 65.144531 L 285.253906 65.84375 C 279.488281 68.199219 269.335938 74.964844 261.097656 83.335938 L 260.558594 82.808594 C 263.730469 79.582031 267.9375 75.960938 272.09375 72.867188 Z M 286.171875 81.859375 L 286.171875 82.621094 C 286.121094 82.621094 286.042969 82.613281 285.851562 82.597656 C 281.957031 82.304688 271.726562 82.113281 260.867188 86.597656 L 260.578125 85.902344 C 271.585938 81.351562 281.960938 81.546875 285.910156 81.84375 C 286.046875 81.855469 286.136719 81.859375 286.171875 81.859375 Z M 273.8125 90.527344 C 282.613281 91.269531 288.417969 90.351562 290.605469 87.878906 C 291.816406 86.511719 291.949219 84.605469 291.003906 82.210938 C 290.667969 81.355469 290.234375 80.558594 289.8125 79.785156 C 288.332031 77.058594 286.796875 74.238281 288.941406 68.332031 C 289.441406 66.945312 290.214844 65.613281 290.964844 64.324219 C 292.492188 61.707031 293.804688 59.445312 292.554688 57.464844 C 292.105469 56.761719 291.21875 56.367188 289.988281 56.328125 C 288.355469 56.273438 283.671875 56.839844 275.355469 63.234375 C 270.070312 67.300781 264.441406 72.902344 258.789062 79.703125 C 256.738281 83.429688 255.390625 86.289062 254.917969 87.308594 C 259.722656 88.515625 267.066406 89.960938 273.8125 90.527344 " fill-opacity="1" fill-rule="nonzero"/><g clip-path="url(#7568262f21)"><path fill="#d89d42" d="M 253.664062 110.488281 C 253.609375 112.359375 253.519531 114.132812 253.394531 115.796875 C 254.445312 118.402344 262.160156 137.039062 268.785156 139.328125 C 271.167969 140.148438 274.722656 139.09375 278.792969 136.359375 C 282.710938 133.726562 286.757812 129.730469 289.902344 125.394531 C 292.863281 121.308594 294.871094 117.171875 295.707031 113.433594 C 296.652344 109.191406 296.078125 105.652344 293.992188 102.914062 C 291.792969 100.023438 285.871094 97.558594 276.863281 95.78125 C 275.449219 95.503906 274.058594 95.261719 272.726562 95.050781 C 276.394531 96.375 279.867188 97.816406 282.664062 99.523438 C 287.785156 102.640625 290.078125 106.328125 289.671875 110.792969 C 289.335938 114.5 282.625 130.773438 272.039062 131.898438 C 271.835938 131.917969 271.636719 131.929688 271.433594 131.929688 C 268.246094 131.929688 265.023438 129.273438 262.066406 124.203125 C 259.585938 119.941406 257.707031 114.625 256.945312 111.246094 C 255.980469 106.972656 255.203125 100.800781 255.917969 96.28125 C 256.4375 92.96875 257.925781 93.011719 260.394531 93.082031 C 260.800781 93.09375 261.222656 93.105469 261.683594 93.105469 C 262.195312 93.105469 263.53125 93.183594 265.402344 93.359375 C 262.746094 92.480469 260.015625 91.570312 257.472656 90.613281 L 254.273438 89.40625 L 257.660156 89.882812 C 261.011719 90.355469 264.066406 90.847656 267.027344 91.328125 C 274.164062 92.480469 280.324219 93.476562 286.609375 93.476562 C 292.953125 93.476562 296.832031 91.828125 298.136719 88.578125 C 299.449219 85.320312 298.445312 82.039062 297.472656 78.867188 C 297.101562 77.660156 296.722656 76.410156 296.46875 75.175781 C 295.402344 69.917969 296.253906 66.222656 299.394531 62.417969 C 302.230469 58.992188 303.363281 56.035156 302.761719 53.632812 C 302.121094 51.070312 299.632812 49.929688 299.136719 49.722656 C 293.847656 47.542969 288.234375 48.15625 282.457031 51.546875 C 277.792969 54.285156 273.011719 58.824219 268.246094 65.039062 C 265.371094 68.78125 262.851562 72.699219 260.789062 76.195312 C 265.605469 70.703125 270.371094 66.113281 274.894531 62.636719 C 280.886719 58.027344 286.394531 55.449219 290.011719 55.570312 C 291.507812 55.617188 292.605469 56.136719 293.191406 57.0625 C 294.691406 59.429688 293.199219 61.992188 291.621094 64.707031 C 290.890625 65.964844 290.132812 67.265625 289.652344 68.589844 C 287.625 74.175781 289.011719 76.726562 290.480469 79.425781 C 290.910156 80.21875 291.355469 81.035156 291.710938 81.933594 C 292.765625 84.613281 292.585938 86.78125 291.175781 88.378906 C 288.789062 91.078125 282.925781 92.054688 273.75 91.28125 C 266.75 90.695312 259.109375 89.164062 254.292969 87.933594 L 253.859375 87.824219 L 254.039062 87.414062 C 254.058594 87.367188 254.855469 85.578125 256.289062 82.785156 C 254.863281 84.589844 253.4375 86.464844 252.023438 88.410156 C 253.304688 93.0625 253.933594 101.492188 253.664062 110.488281 " fill-opacity="1" fill-rule="nonzero"/></g><path fill="#d89d42" d="M 250.203125 88.484375 C 251.125 88.484375 251.871094 87.542969 251.871094 86.390625 C 251.871094 85.234375 251.125 84.292969 250.203125 84.292969 C 249.285156 84.292969 248.535156 85.234375 248.535156 86.390625 C 248.535156 87.542969 249.285156 88.484375 250.203125 88.484375 " fill-opacity="1" fill-rule="nonzero"/><path fill="#d89d42" d="M 246.207031 87.414062 L 246.386719 87.824219 L 245.953125 87.933594 C 241.136719 89.164062 233.496094 90.695312 226.492188 91.28125 C 217.316406 92.054688 211.453125 91.078125 209.070312 88.378906 C 207.65625 86.78125 207.476562 84.613281 208.53125 81.933594 C 208.886719 81.035156 209.332031 80.21875 209.761719 79.425781 C 211.230469 76.726562 212.621094 74.175781 210.59375 68.589844 C 210.109375 67.265625 209.355469 65.964844 208.621094 64.707031 C 207.042969 61.992188 205.550781 59.429688 207.050781 57.0625 C 207.636719 56.136719 208.738281 55.617188 210.234375 55.570312 C 213.847656 55.453125 219.355469 58.027344 225.351562 62.636719 C 229.871094 66.113281 234.640625 70.703125 239.457031 76.195312 C 237.390625 72.691406 234.867188 68.777344 231.992188 65.027344 C 227.226562 58.816406 222.445312 54.28125 217.78125 51.546875 C 212.007812 48.15625 206.398438 47.542969 201.105469 49.722656 C 200.613281 49.929688 198.121094 51.070312 197.480469 53.632812 C 196.878906 56.035156 198.011719 58.992188 200.847656 62.417969 C 203.992188 66.222656 204.839844 69.917969 203.773438 75.175781 C 203.523438 76.410156 203.136719 77.660156 202.769531 78.867188 C 200.792969 85.320312 201.460938 86.976562 202.105469 88.578125 C 203.410156 91.828125 207.289062 93.476562 213.636719 93.476562 C 219.917969 93.476562 226.082031 92.480469 233.214844 91.328125 C 236.171875 90.847656 239.234375 90.355469 242.582031 89.882812 L 245.96875 89.40625 L 242.769531 90.613281 C 240.226562 91.570312 237.5 92.480469 234.84375 93.359375 C 236.710938 93.183594 238.050781 93.105469 238.558594 93.105469 C 239.023438 93.105469 239.445312 93.09375 239.851562 93.082031 C 242.316406 93.011719 243.808594 92.96875 244.328125 96.28125 C 245.039062 100.800781 244.265625 106.972656 243.300781 111.246094 C 242.535156 114.625 240.65625 119.941406 238.175781 124.203125 C 235.035156 129.597656 231.585938 132.257812 228.203125 131.898438 C 217.621094 130.773438 210.90625 114.5 210.570312 110.792969 C 210.164062 106.328125 212.457031 102.640625 217.578125 99.523438 C 220.378906 97.816406 223.847656 96.375 227.519531 95.050781 C 226.1875 95.261719 224.792969 95.503906 223.378906 95.78125 C 214.375 97.558594 208.449219 100.023438 206.25 102.914062 C 204.101562 105.738281 203.558594 109.425781 204.644531 113.867188 C 205.597656 117.773438 207.773438 122.0625 210.941406 126.269531 C 214.101562 130.46875 218.074219 134.277344 221.835938 136.726562 C 225.757812 139.28125 229.175781 140.207031 231.449219 139.332031 C 236.75 137.285156 245.472656 119.957031 246.832031 115.597656 C 246.71875 113.992188 246.632812 112.285156 246.578125 110.488281 C 246.3125 101.492188 246.9375 93.0625 248.21875 88.410156 C 246.800781 86.464844 245.378906 84.589844 243.953125 82.789062 C 245.386719 85.578125 246.1875 87.367188 246.207031 87.414062 " fill-opacity="1" fill-rule="nonzero"/><path fill="#d89d42" d="M 248.351562 82.746094 C 247.617188 77.347656 246.058594 69.214844 243.882812 62.574219 C 241.988281 56.800781 238.917969 50.019531 235.019531 50.496094 L 234.925781 49.746094 C 238.460938 49.308594 241.71875 53.546875 244.601562 62.339844 C 246.792969 69.027344 248.363281 77.214844 249.101562 82.644531 L 248.351562 82.746094 " fill-opacity="1" fill-rule="nonzero"/><path fill="#d89d42" d="M 251.640625 82.746094 L 250.890625 82.644531 C 251.628906 77.214844 253.195312 69.027344 255.386719 62.339844 C 258.269531 53.546875 261.523438 49.308594 265.066406 49.746094 L 264.972656 50.496094 C 261.074219 50.015625 258 56.800781 256.109375 62.574219 C 253.933594 69.214844 252.371094 77.347656 251.640625 82.746094 " fill-opacity="1" fill-rule="nonzero"/><g fill="#d89d42" fill-opacity="1"><g transform="translate(13.98426, 290.688238)"><g><path d="M 32.171875 -10.238281 C 35.695312 -14.832031 38.6875 -20.421875 39.453125 -26.1875 C 39.507812 -26.546875 38.6875 -26.832031 38.546875 -26.472656 C 36.675781 -21.96875 34.949219 -17.574219 32.066406 -13.585938 C 29.5 -10.023438 26.242188 -6.339844 22.238281 -4.378906 C 20.082031 -3.328125 17.609375 -2.867188 15.347656 -3.84375 C 12.980469 -4.859375 11.253906 -7.085938 10.238281 -9.398438 C 8.277344 -13.816406 8.242188 -19.175781 9.132812 -23.855469 C 10.078125 -28.71875 12.25 -33.1875 15.382812 -37.015625 C 16.699219 -38.632812 18.175781 -40.113281 19.691406 -41.570312 C 21.007812 -42.871094 22.003906 -44.261719 21.328125 -46.164062 C 20.6875 -47.910156 19.210938 -49.121094 19.386719 -50.988281 C 21.472656 -50.902344 23.570312 -50.722656 25.65625 -50.707031 C 27.917969 -50.667969 30.941406 -50.527344 32.9375 -51.808594 C 34.414062 -52.753906 35.039062 -54.710938 33.878906 -56.152344 C 32.597656 -57.738281 30.089844 -58.308594 28.164062 -58.46875 C 23.980469 -58.804688 18.355469 -56.617188 17.339844 -52.074219 C 14.992188 -52.074219 12.675781 -51.898438 10.378906 -51.167969 C 6.445312 -49.902344 3.117188 -46.914062 2.597656 -42.65625 C 2.582031 -42.460938 3.0625 -42.285156 3.132812 -42.496094 C 4.984375 -48.300781 10.523438 -50.8125 16.238281 -51.027344 C 16.574219 -51.027344 16.894531 -51.042969 17.234375 -51.042969 C 17.25 -49.246094 18.445312 -48.015625 19.28125 -46.398438 C 20.117188 -44.757812 19.351562 -43.691406 18.175781 -42.53125 C 17.089844 -41.464844 16.023438 -40.378906 15.007812 -39.257812 C 11.359375 -35.214844 8.671875 -30.480469 7.496094 -25.140625 C 6.355469 -20.066406 6.285156 -14.296875 8.367188 -9.4375 C 10.09375 -5.375 13.691406 -1.941406 18.285156 -1.726562 C 24.070312 -1.441406 28.914062 -5.980469 32.171875 -10.238281 Z M 24.320312 -56.296875 C 26.527344 -57.167969 29.289062 -57.308594 31.476562 -56.296875 C 33.328125 -55.421875 32.722656 -53.445312 31.191406 -52.679688 C 29.839844 -51.988281 28.003906 -51.914062 26.527344 -51.863281 C 24.230469 -51.753906 21.933594 -51.933594 19.621094 -52.023438 C 20.386719 -54.070312 22.363281 -55.53125 24.320312 -56.296875 Z M 24.320312 -56.296875 "/></g></g></g><g fill="#d89d42" fill-opacity="1"><g transform="translate(59.626765, 290.688238)"><g><path d="M 16.058594 -5.945312 C 18.835938 -6.570312 22.34375 -6.855469 25.101562 -6.054688 C 25.976562 -5.804688 25.851562 -6.855469 25.085938 -6.996094 C 22.914062 -7.441406 20.902344 -7.957031 18.660156 -7.816406 C 16.609375 -7.710938 14.582031 -7.300781 12.640625 -6.621094 C 10.628906 -5.910156 8.722656 -4.894531 6.996094 -3.597656 C 6.585938 -3.292969 6.214844 -2.9375 5.804688 -2.636719 C 5.003906 -2.046875 4.34375 -1.53125 3.808594 -2.652344 C 3.152344 -4.042969 3.042969 -5.910156 3.0625 -7.425781 C 3.152344 -12.90625 4.09375 -18.480469 4.914062 -23.910156 C 5.804688 -29.714844 6.855469 -35.5 7.976562 -41.269531 C 9.203125 -47.625 10.574219 -53.945312 11.839844 -60.300781 C 11.929688 -60.730469 11.019531 -61.066406 10.929688 -60.65625 C 8.226562 -48.78125 5.769531 -36.816406 3.898438 -24.78125 C 2.972656 -18.890625 1.761719 -12.746094 1.691406 -6.785156 C 1.671875 -4.808594 1.390625 -1.761719 3.542969 -0.730469 C 5.339844 0.125 6.871094 -1.175781 8.242188 -2.242188 C 10.539062 -4.023438 13.210938 -5.304688 16.058594 -5.945312 Z M 16.058594 -5.945312 "/></g></g></g><g fill="#d89d42" fill-opacity="1"><g transform="translate(80.80753, 290.688238)"><g/></g></g><g fill="#d89d42" fill-opacity="1"><g transform="translate(94.816217, 290.688238)"><g/></g></g><g fill="#d89d42" fill-opacity="1"><g transform="translate(108.824903, 290.688238)"><g/></g></g><g fill="#d89d42" fill-opacity="1"><g transform="translate(122.833588, 290.688238)"><g/></g></g><g fill="#d89d42" fill-opacity="1"><g transform="translate(136.838038, 290.688238)"><g><path d="M 26.296875 -20.011719 C 24.925781 -19.261719 24.195312 -19.140625 23.054688 -18.214844 C 23.089844 -22.574219 22.914062 -26.917969 22.503906 -31.261719 C 22.378906 -32.632812 21.1875 -44.402344 18.460938 -42.25 C 17.714844 -41.679688 17.484375 -40.238281 17.144531 -39.398438 C 16.59375 -37.976562 16.003906 -36.550781 15.453125 -35.125 C 14.332031 -32.277344 13.191406 -29.429688 11.894531 -26.671875 C 10.449219 -23.609375 8.722656 -20.652344 6.535156 -18.070312 C 6.535156 -18.070312 5.964844 -17.304688 5.820312 -17.269531 C 5.128906 -17.144531 5.289062 -17.660156 5.214844 -18.175781 C 5.109375 -19.140625 5.074219 -20.117188 5.039062 -21.097656 C 4.96875 -22.929688 4.984375 -24.765625 5.019531 -26.597656 C 5.09375 -30.375 5.304688 -34.148438 5.199219 -37.941406 C 5.109375 -40.59375 5.375 -44.421875 3.027344 -46.238281 C 2.742188 -46.46875 1.921875 -46.804688 1.726562 -46.273438 C 1.085938 -44.597656 0.375 -42.960938 -0.0703125 -41.234375 C -0.480469 -39.632812 -0.605469 -38.027344 -0.765625 -36.410156 C -0.925781 -34.894531 -1.832031 -30.390625 1.105469 -31.015625 C 2.03125 -31.191406 1.371094 -32.152344 0.570312 -32.347656 C 0.0898438 -33.097656 0.0898438 -34.964844 0.0351562 -35.660156 C -0.0703125 -36.871094 0.105469 -38.046875 0.375 -39.238281 C 0.785156 -41.144531 1.425781 -43.03125 2.511719 -44.652344 C 3.4375 -42.570312 3.242188 -39.84375 3.292969 -37.691406 C 3.347656 -34.664062 3.222656 -31.636719 3.152344 -28.609375 C 3.0625 -25.691406 3.027344 -22.789062 3.222656 -19.867188 C 3.328125 -18.285156 3.328125 -16.003906 5.289062 -15.558594 C 7.246094 -15.117188 8.191406 -17.304688 9.007812 -18.695312 C 10.363281 -20.972656 11.519531 -23.359375 12.570312 -25.78125 C 13.65625 -28.21875 14.597656 -30.730469 15.542969 -33.222656 C 16.46875 -35.644531 17.179688 -38.472656 18.515625 -40.699219 C 18.746094 -41.074219 18.640625 -41.214844 19.121094 -41.410156 C 19.816406 -41.679688 19.371094 -41.5 19.691406 -41.039062 C 20.046875 -40.539062 20.117188 -39.648438 20.277344 -39.0625 C 20.652344 -37.546875 20.882812 -36.015625 21.0625 -34.46875 C 21.398438 -31.566406 21.523438 -28.609375 21.578125 -25.691406 C 21.648438 -22.84375 21.632812 -19.992188 21.523438 -17.144531 C 17.75 -14.351562 14.582031 -10.769531 12.410156 -6.5 C 10.148438 -2.046875 8.296875 4.378906 10.914062 9.078125 C 11.714844 10.503906 13.15625 11.609375 14.867188 11.339844 C 17.019531 11.003906 18.265625 8.757812 19.101562 6.980469 C 21.667969 1.425781 22.34375 -4.824219 22.769531 -10.859375 C 22.914062 -13.066406 23.003906 -15.277344 23.039062 -17.484375 C 26.671875 -20.101562 25.015625 -18.996094 26.402344 -19.867188 C 26.527344 -19.90625 26.386719 -20.027344 26.296875 -20.011719 Z M 20.847656 -7.636719 C 20.527344 -4.71875 20.152344 -1.796875 19.441406 1.050781 C 18.800781 3.613281 18.054688 6.605469 16.46875 8.757812 C 15.453125 10.148438 13.867188 11.074219 12.375 9.613281 C 11.304688 8.582031 10.984375 6.660156 10.808594 5.289062 C 10.449219 2.402344 11.054688 -0.550781 12.015625 -3.277344 C 13.851562 -8.421875 17.25 -12.855469 21.488281 -16.289062 C 21.363281 -13.40625 21.152344 -10.503906 20.847656 -7.636719 Z M 20.847656 -7.636719 "/></g></g></g><g fill="#d89d42" fill-opacity="1"><g transform="translate(167.417532, 290.688238)"><g/></g></g><g fill="#d89d42" fill-opacity="1"><g transform="translate(181.426219, 290.688238)"><g/></g></g><g fill="#d89d42" fill-opacity="1"><g transform="translate(195.434906, 290.688238)"><g/></g></g><g fill="#d89d42" fill-opacity="1"><g transform="translate(209.44359, 290.688238)"><g/></g></g><g fill="#d89d42" fill-opacity="1"><g transform="translate(223.448041, 290.688238)"><g><path d="M 32.171875 -10.238281 C 35.695312 -14.832031 38.6875 -20.421875 39.453125 -26.1875 C 39.507812 -26.546875 38.6875 -26.832031 38.546875 -26.472656 C 36.675781 -21.96875 34.949219 -17.574219 32.066406 -13.585938 C 29.5 -10.023438 26.242188 -6.339844 22.238281 -4.378906 C 20.082031 -3.328125 17.609375 -2.867188 15.347656 -3.84375 C 12.980469 -4.859375 11.253906 -7.085938 10.238281 -9.398438 C 8.277344 -13.816406 8.242188 -19.175781 9.132812 -23.855469 C 10.078125 -28.71875 12.25 -33.1875 15.382812 -37.015625 C 16.699219 -38.632812 18.175781 -40.113281 19.691406 -41.570312 C 21.007812 -42.871094 22.003906 -44.261719 21.328125 -46.164062 C 20.6875 -47.910156 19.210938 -49.121094 19.386719 -50.988281 C 21.472656 -50.902344 23.570312 -50.722656 25.65625 -50.707031 C 27.917969 -50.667969 30.941406 -50.527344 32.9375 -51.808594 C 34.414062 -52.753906 35.039062 -54.710938 33.878906 -56.152344 C 32.597656 -57.738281 30.089844 -58.308594 28.164062 -58.46875 C 23.980469 -58.804688 18.355469 -56.617188 17.339844 -52.074219 C 14.992188 -52.074219 12.675781 -51.898438 10.378906 -51.167969 C 6.445312 -49.902344 3.117188 -46.914062 2.597656 -42.65625 C 2.582031 -42.460938 3.0625 -42.285156 3.132812 -42.496094 C 4.984375 -48.300781 10.523438 -50.8125 16.238281 -51.027344 C 16.574219 -51.027344 16.894531 -51.042969 17.234375 -51.042969 C 17.25 -49.246094 18.445312 -48.015625 19.28125 -46.398438 C 20.117188 -44.757812 19.351562 -43.691406 18.175781 -42.53125 C 17.089844 -41.464844 16.023438 -40.378906 15.007812 -39.257812 C 11.359375 -35.214844 8.671875 -30.480469 7.496094 -25.140625 C 6.355469 -20.066406 6.285156 -14.296875 8.367188 -9.4375 C 10.09375 -5.375 13.691406 -1.941406 18.285156 -1.726562 C 24.070312 -1.441406 28.914062 -5.980469 32.171875 -10.238281 Z M 24.320312 -56.296875 C 26.527344 -57.167969 29.289062 -57.308594 31.476562 -56.296875 C 33.328125 -55.421875 32.722656 -53.445312 31.191406 -52.679688 C 29.839844 -51.988281 28.003906 -51.914062 26.527344 -51.863281 C 24.230469 -51.753906 21.933594 -51.933594 19.621094 -52.023438 C 20.386719 -54.070312 22.363281 -55.53125 24.320312 -56.296875 Z M 24.320312 -56.296875 "/></g></g></g><g fill="#d89d42" fill-opacity="1"><g transform="translate(269.090545, 290.688238)"><g><path d="M 16.058594 -5.945312 C 18.835938 -6.570312 22.34375 -6.855469 25.101562 -6.054688 C 25.976562 -5.804688 25.851562 -6.855469 25.085938 -6.996094 C 22.914062 -7.441406 20.902344 -7.957031 18.660156 -7.816406 C 16.609375 -7.710938 14.582031 -7.300781 12.640625 -6.621094 C 10.628906 -5.910156 8.722656 -4.894531 6.996094 -3.597656 C 6.585938 -3.292969 6.214844 -2.9375 5.804688 -2.636719 C 5.003906 -2.046875 4.34375 -1.53125 3.808594 -2.652344 C 3.152344 -4.042969 3.042969 -5.910156 3.0625 -7.425781 C 3.152344 -12.90625 4.09375 -18.480469 4.914062 -23.910156 C 5.804688 -29.714844 6.855469 -35.5 7.976562 -41.269531 C 9.203125 -47.625 10.574219 -53.945312 11.839844 -60.300781 C 11.929688 -60.730469 11.019531 -61.066406 10.929688 -60.65625 C 8.226562 -48.78125 5.769531 -36.816406 3.898438 -24.78125 C 2.972656 -18.890625 1.761719 -12.746094 1.691406 -6.785156 C 1.671875 -4.808594 1.390625 -1.761719 3.542969 -0.730469 C 5.339844 0.125 6.871094 -1.175781 8.242188 -2.242188 C 10.539062 -4.023438 13.210938 -5.304688 16.058594 -5.945312 Z M 16.058594 -5.945312 "/></g></g></g><g fill="#d89d42" fill-opacity="1"><g transform="translate(290.273366, 290.688238)"><g><path d="M 16.058594 -5.945312 C 18.835938 -6.570312 22.34375 -6.855469 25.101562 -6.054688 C 25.976562 -5.804688 25.851562 -6.855469 25.085938 -6.996094 C 22.914062 -7.441406 20.902344 -7.957031 18.660156 -7.816406 C 16.609375 -7.710938 14.582031 -7.300781 12.640625 -6.621094 C 10.628906 -5.910156 8.722656 -4.894531 6.996094 -3.597656 C 6.585938 -3.292969 6.214844 -2.9375 5.804688 -2.636719 C 5.003906 -2.046875 4.34375 -1.53125 3.808594 -2.652344 C 3.152344 -4.042969 3.042969 -5.910156 3.0625 -7.425781 C 3.152344 -12.90625 4.09375 -18.480469 4.914062 -23.910156 C 5.804688 -29.714844 6.855469 -35.5 7.976562 -41.269531 C 9.203125 -47.625 10.574219 -53.945312 11.839844 -60.300781 C 11.929688 -60.730469 11.019531 -61.066406 10.929688 -60.65625 C 8.226562 -48.78125 5.769531 -36.816406 3.898438 -24.78125 C 2.972656 -18.890625 1.761719 -12.746094 1.691406 -6.785156 C 1.671875 -4.808594 1.390625 -1.761719 3.542969 -0.730469 C 5.339844 0.125 6.871094 -1.175781 8.242188 -2.242188 C 10.539062 -4.023438 13.210938 -5.304688 16.058594 -5.945312 Z M 16.058594 -5.945312 "/></g></g></g><g fill="#d89d42" fill-opacity="1"><g transform="translate(311.456187, 290.688238)"><g><path d="M 35.609375 -23.519531 C 35.179688 -17.980469 33.558594 -12.265625 30.835938 -7.441406 C 30.285156 -6.480469 29.144531 -3.988281 27.808594 -4.273438 C 26.492188 -4.539062 26.472656 -7.175781 26.402344 -8.351562 C 26.226562 -11.375 26.332031 -14.4375 26.347656 -17.449219 C 26.402344 -23.289062 26.597656 -29.125 26.9375 -34.949219 C 26.972656 -35.125 27.027344 -35.285156 27.078125 -35.464844 C 27.863281 -38.386719 28.59375 -41.339844 29.214844 -44.3125 C 29.804688 -47.125 30.175781 -49.886719 29.519531 -52.71875 C 29.359375 -53.394531 28.058594 -53.730469 27.683594 -53.109375 C 26.6875 -51.363281 26.152344 -49.40625 25.832031 -47.359375 C 25.191406 -49.636719 24.300781 -51.828125 22.929688 -53.714844 C 20.421875 -57.167969 16.273438 -57.382812 13.050781 -54.710938 C 9.328125 -51.613281 7.40625 -46.414062 5.734375 -42.035156 C 3.917969 -37.210938 2.597656 -32.226562 1.78125 -27.132812 C 0.90625 -21.828125 0.515625 -16.378906 0.835938 -11.019531 C 0.980469 -8.546875 1.316406 -6.070312 2.117188 -3.722656 C 2.722656 -1.957031 3.542969 0.125 5.164062 1.175781 C 8.902344 3.613281 12.710938 -1.140625 14.511719 -3.898438 C 17.324219 -8.207031 19.28125 -13.191406 21.203125 -17.945312 C 22.46875 -21.097656 23.625 -24.285156 24.675781 -27.507812 C 24.605469 -25.386719 24.550781 -23.269531 24.496094 -21.152344 C 24.445312 -18.285156 24.425781 -15.4375 24.445312 -12.570312 C 24.445312 -10.078125 24.265625 -7.300781 25.210938 -4.929688 C 25.726562 -3.648438 26.953125 -2.492188 28.449219 -2.847656 C 30.375 -3.3125 31.121094 -5.769531 31.867188 -7.316406 C 34.324219 -12.425781 35.570312 -17.804688 35.964844 -23.429688 C 35.980469 -23.589844 35.625 -23.695312 35.609375 -23.519531 Z M 25.210938 -38.242188 C 25.140625 -37.316406 25.101562 -36.410156 25.050781 -35.484375 C 24.125 -32.207031 23.109375 -28.949219 22.003906 -25.726562 C 20.527344 -21.488281 18.871094 -17.324219 17.054688 -13.226562 C 15.363281 -9.4375 13.691406 -5.359375 10.859375 -2.261719 C 9.382812 -0.660156 6.710938 1.691406 5.09375 -1.03125 C 3.917969 -3.042969 3.328125 -5.464844 2.992188 -7.726562 C 2.386719 -12.070312 2.546875 -16.59375 2.9375 -20.953125 C 3.722656 -29.804688 6.019531 -38.546875 9.808594 -46.59375 C 11.324219 -49.796875 16.253906 -58.539062 20.707031 -54.125 C 22.324219 -52.519531 23.25 -50.011719 24.015625 -47.925781 C 24.621094 -46.289062 25.140625 -44.652344 25.421875 -42.976562 C 25.335938 -41.359375 25.300781 -39.753906 25.210938 -38.242188 Z M 25.210938 -38.242188 "/></g></g></g><g fill="#d89d42" fill-opacity="1"><g transform="translate(350.718429, 290.688238)"><g/></g></g><g fill="#d89d42" fill-opacity="1"><g transform="translate(133.19604, 325.308142)"><g><path d="M 6.464844 -5.65625 C 7.722656 -5.933594 8.574219 -6.800781 8.574219 -7.835938 C 8.574219 -9.425781 6.632812 -9.777344 4.371094 -9.777344 L 0.210938 -9.777344 L 0.210938 -9.707031 C 0.78125 -9.636719 1.269531 -9.480469 1.269531 -8.980469 L 1.269531 -1.074219 C 1.269531 -0.574219 0.78125 -0.28125 0.210938 -0.0703125 L 0.210938 0 L 4.929688 0 C 7.554688 0 9.496094 -1.230469 9.496094 -3.183594 C 9.496094 -4.71875 8.253906 -5.472656 6.464844 -5.65625 Z M 4.300781 -9.550781 C 6.019531 -9.550781 6.703125 -8.503906 6.703125 -7.179688 C 6.703125 -5.894531 6.0625 -5.699219 5.308594 -5.699219 L 3.183594 -5.699219 L 3.183594 -9.550781 Z M 5.070312 -0.222656 C 4.414062 -0.222656 3.855469 -0.335938 3.183594 -0.542969 L 3.183594 -5.460938 L 4.636719 -5.460938 C 7.261719 -5.460938 7.597656 -4.007812 7.597656 -2.640625 C 7.597656 -0.574219 6.871094 -0.222656 5.070312 -0.222656 Z M 5.070312 -0.222656 "/></g></g></g><g fill="#d89d42" fill-opacity="1"><g transform="translate(143.245051, 325.308142)"><g><path d="M 8.855469 -2.972656 C 7.707031 -1.101562 6.828125 -0.222656 5.027344 -0.222656 L 3.183594 -0.222656 L 3.183594 -4.777344 L 4.355469 -4.777344 C 6.089844 -4.777344 6.746094 -4.398438 7.082031 -3.128906 L 7.082031 -6.660156 C 6.746094 -5.375 6.089844 -5 4.355469 -5 L 3.183594 -5 L 3.183594 -9.550781 L 4.945312 -9.550781 C 6.746094 -9.550781 7.289062 -8.855469 8.351562 -7.289062 L 8.40625 -7.316406 L 7.890625 -9.777344 L 0.210938 -9.777344 L 0.210938 -9.707031 C 0.78125 -9.636719 1.269531 -9.480469 1.269531 -8.980469 L 1.269531 -1.074219 C 1.269531 -0.574219 0.78125 -0.28125 0.210938 -0.0703125 L 0.210938 0 L 7.609375 0 L 8.085938 0.308594 L 8.167969 0 L 8.910156 -2.945312 Z M 8.855469 -2.972656 "/></g></g></g><g fill="#d89d42" fill-opacity="1"><g transform="translate(152.358953, 325.308142)"><g><path d="M 9.929688 -1.757812 L 6.984375 -9.203125 C 6.6875 -9.929688 6.660156 -10.097656 6.660156 -10.179688 L 5.011719 -9.300781 L 4.75 -9.148438 L 4.777344 -8.742188 L 1.71875 -1.691406 C 1.199219 -0.488281 0.867188 -0.222656 0.28125 -0.0546875 L 0.28125 0 L 2.847656 0 L 2.847656 -0.0546875 C 2.066406 -0.222656 1.507812 -0.476562 2.023438 -1.675781 L 2.332031 -2.375 L 7.667969 -2.375 L 7.945312 -1.675781 C 8.433594 -0.445312 7.875 -0.140625 6.898438 -0.0546875 L 6.898438 0 L 11.3125 0 L 11.3125 -0.0546875 C 10.683594 -0.140625 10.433594 -0.476562 9.929688 -1.757812 Z M 2.429688 -2.625 L 5.097656 -8.785156 L 7.570312 -2.625 Z M 2.429688 -2.625 "/></g></g></g><g fill="#d89d42" fill-opacity="1"><g transform="translate(163.943234, 325.308142)"><g><path d="M 5.320312 0.195312 C 7.472656 0.195312 9.078125 -1.171875 9.078125 -3.730469 L 9.078125 -7.835938 C 9.078125 -9.496094 9.566406 -9.648438 10.136719 -9.71875 L 10.136719 -9.789062 L 7.582031 -9.789062 L 7.582031 -9.71875 C 8.296875 -9.648438 8.785156 -9.21875 8.785156 -7.554688 L 8.785156 -3.5625 C 8.785156 -1.230469 7.109375 -0.308594 5.808594 -0.308594 C 4.734375 -0.308594 3.183594 -0.9375 3.183594 -3.53125 L 3.183594 -8.980469 C 3.183594 -9.480469 3.671875 -9.636719 4.246094 -9.707031 L 4.246094 -9.777344 L 0.210938 -9.777344 L 0.210938 -9.707031 C 0.78125 -9.636719 1.269531 -9.480469 1.269531 -8.980469 L 1.269531 -3.699219 C 1.269531 -0.488281 3.796875 0.195312 5.320312 0.195312 Z M 5.320312 0.195312 "/></g></g></g><g fill="#d89d42" fill-opacity="1"><g transform="translate(174.28534, 325.308142)"><g><path d="M 9.746094 -9.777344 L 0.601562 -9.777344 L 0.140625 -6.898438 L 0.195312 -6.898438 C 0.992188 -8.785156 1.828125 -9.550781 3.910156 -9.566406 L 3.910156 -0.9375 C 3.910156 -0.292969 3.421875 -0.140625 2.570312 -0.0703125 L 2.570312 0 L 7.164062 0 L 7.164062 -0.0703125 C 6.3125 -0.140625 5.824219 -0.292969 5.824219 -0.9375 L 5.824219 -9.566406 L 6.355469 -9.566406 C 7.917969 -9.566406 8.980469 -8.796875 8.796875 -6.898438 L 8.855469 -6.898438 Z M 9.746094 -9.777344 "/></g></g></g><g fill="#d89d42" fill-opacity="1"><g transform="translate(184.166866, 325.308142)"><g><path d="M 7.945312 -9.777344 L 7.945312 -9.71875 C 8.855469 -9.578125 9.34375 -9.355469 8.742188 -8.363281 L 6.394531 -4.441406 L 3.8125 -8.503906 L 3.058594 -9.777344 L 0.210938 -9.777344 L 0.210938 -9.71875 C 0.671875 -9.636719 1.160156 -9.316406 1.691406 -8.503906 L 4.648438 -3.894531 L 4.648438 -0.796875 C 4.648438 -0.292969 4.160156 -0.140625 3.449219 -0.0703125 L 3.449219 0 L 7.765625 0 L 7.765625 -0.0703125 C 7.050781 -0.140625 6.5625 -0.292969 6.5625 -0.796875 L 6.5625 -4.175781 L 9.089844 -8.351562 C 9.691406 -9.328125 10.265625 -9.550781 11.03125 -9.71875 L 11.03125 -9.777344 Z M 7.945312 -9.777344 "/></g></g></g><g fill="#d89d42" fill-opacity="1"><g transform="translate(195.399161, 325.308142)"><g/></g></g><g fill="#d89d42" fill-opacity="1"><g transform="translate(198.190558, 325.308142)"><g/></g></g><g fill="#d89d42" fill-opacity="1"><g transform="translate(200.981955, 325.308142)"><g/></g></g><g fill="#d89d42" fill-opacity="1"><g transform="translate(203.766348, 325.308142)"><g><path d="M 4.914062 -5.835938 C 3.449219 -6.171875 2.191406 -6.605469 2.191406 -8.070312 C 2.191406 -8.855469 2.542969 -9.761719 3.867188 -9.761719 C 5.40625 -9.761719 6.96875 -8.574219 6.71875 -6.660156 L 8.042969 -8.699219 C 7.304688 -9.414062 6.144531 -9.972656 4.523438 -9.972656 C 2.277344 -9.972656 0.808594 -8.910156 0.808594 -7.191406 C 0.808594 -5.992188 1.550781 -4.582031 4.257812 -3.953125 C 5.921875 -3.5625 6.855469 -3.210938 6.855469 -1.96875 C 6.855469 -1.230469 6.523438 -0.0273438 4.886719 -0.0273438 C 3.308594 -0.0273438 1.660156 -1.230469 1.84375 -3.15625 L 0.558594 -1.117188 C 1.3125 -0.390625 2.640625 0.195312 4.328125 0.195312 C 6.785156 0.195312 8.210938 -1.117188 8.210938 -2.820312 C 8.210938 -3.855469 7.667969 -5.207031 4.914062 -5.835938 Z M 4.914062 -5.835938 "/></g></g></g><g fill="#d89d42" fill-opacity="1"><g transform="translate(212.53132, 325.308142)"><g><path d="M 9.929688 -1.757812 L 6.984375 -9.203125 C 6.6875 -9.929688 6.660156 -10.097656 6.660156 -10.179688 L 5.011719 -9.300781 L 4.75 -9.148438 L 4.777344 -8.742188 L 1.71875 -1.691406 C 1.199219 -0.488281 0.867188 -0.222656 0.28125 -0.0546875 L 0.28125 0 L 2.847656 0 L 2.847656 -0.0546875 C 2.066406 -0.222656 1.507812 -0.476562 2.023438 -1.675781 L 2.332031 -2.375 L 7.667969 -2.375 L 7.945312 -1.675781 C 8.433594 -0.445312 7.875 -0.140625 6.898438 -0.0546875 L 6.898438 0 L 11.3125 0 L 11.3125 -0.0546875 C 10.683594 -0.140625 10.433594 -0.476562 9.929688 -1.757812 Z M 2.429688 -2.625 L 5.097656 -8.785156 L 7.570312 -2.625 Z M 2.429688 -2.625 "/></g></g></g><g fill="#d89d42" fill-opacity="1"><g transform="translate(224.115601, 325.308142)"><g><path d="M 8.546875 -2.875 C 7.289062 -1.199219 6.621094 -0.222656 4.257812 -0.222656 L 3.183594 -0.222656 L 3.183594 -8.980469 C 3.183594 -9.480469 3.671875 -9.636719 4.386719 -9.707031 L 4.386719 -9.777344 L 0.210938 -9.777344 L 0.210938 -9.707031 C 0.78125 -9.636719 1.269531 -9.480469 1.269531 -8.980469 L 1.269531 -1.5625 C 1.269531 -0.824219 0.78125 -0.28125 0.210938 -0.0703125 L 0.210938 0 L 7.316406 0 L 7.792969 0.308594 L 7.875 0 L 8.601562 -2.847656 Z M 8.546875 -2.875 "/></g></g></g><g fill="#d89d42" fill-opacity="1"><g transform="translate(232.922447, 325.308142)"><g><path d="M 6.019531 -9.972656 C 2.972656 -9.972656 0.628906 -8.03125 0.628906 -4.886719 C 0.628906 -1.746094 2.972656 0.195312 6.019531 0.195312 C 9.050781 0.195312 11.394531 -1.746094 11.394531 -4.886719 C 11.394531 -8.03125 9.050781 -9.972656 6.019531 -9.972656 Z M 6.605469 -0.0546875 C 4.289062 -0.0546875 2.652344 -3.03125 2.652344 -5.824219 C 2.652344 -8.140625 3.742188 -9.71875 5.417969 -9.71875 C 7.738281 -9.71875 9.371094 -6.746094 9.371094 -3.964844 C 9.371094 -1.648438 8.28125 -0.0546875 6.605469 -0.0546875 Z M 6.605469 -0.0546875 "/></g></g></g><g fill="#d89d42" fill-opacity="1"><g transform="translate(244.939395, 325.308142)"><g><path d="M 7.667969 -9.777344 L 7.667969 -9.707031 C 8.238281 -9.636719 8.726562 -9.203125 8.726562 -7.304688 L 8.726562 -2.863281 L 3.367188 -9.1875 C 3.171875 -9.480469 3.03125 -9.636719 2.945312 -9.777344 L 0.140625 -9.777344 C 0.585938 -9.550781 0.9375 -9.230469 1.410156 -8.671875 L 1.410156 -2.191406 C 1.410156 -0.292969 0.921875 -0.140625 0.347656 -0.0703125 L 0.347656 0 L 2.75 0 L 2.75 -0.0703125 C 2.179688 -0.140625 1.691406 -0.574219 1.691406 -2.472656 L 1.691406 -8.335938 L 9.035156 0.390625 L 9.0625 0.363281 C 9.035156 -0.140625 8.992188 -0.867188 8.992188 -2.316406 L 8.992188 -7.582031 C 8.992188 -9.480469 9.480469 -9.636719 10.054688 -9.707031 L 10.054688 -9.777344 Z M 7.667969 -9.777344 "/></g></g></g><g fill="#d89d42" fill-opacity="1"><g transform="translate(255.18822, 325.308142)"><g/></g></g></svg>